<mxfile host="Electron" modified="2025-08-14T19:47:41.308Z" agent="Mozilla/5.0 (Windows NT 10.0; Win64; x64) AppleWebKit/537.36 (KHTML, like Gecko) draw.io/22.0.3 Chrome/114.0.5735.289 Electron/25.8.4 Safari/537.36" etag="KE7DTS0pRCdFGiRpA-R-" version="22.0.3" type="device" pages="3">
  <diagram id="zyGl2hGzKNHiH6R9SecC" name="N1">
    <mxGraphModel dx="2427" dy="1520" grid="1" gridSize="10" guides="1" tooltips="1" connect="1" arrows="1" fold="1" page="1" pageScale="1" pageWidth="827" pageHeight="1169" math="0" shadow="0">
      <root>
        <mxCell id="0" />
        <mxCell id="1" parent="0" />
        <mxCell id="DOC34deg08yGegM6_2FB-1" value="" style="rounded=0;whiteSpace=wrap;html=1;fillColor=none;" vertex="1" parent="1">
          <mxGeometry x="90" y="120" width="670" height="270" as="geometry" />
        </mxCell>
        <mxCell id="jGZWiKhNGa143dclL73a-10" style="edgeStyle=orthogonalEdgeStyle;rounded=0;orthogonalLoop=1;jettySize=auto;html=1;" edge="1" parent="1" source="jGZWiKhNGa143dclL73a-1" target="jGZWiKhNGa143dclL73a-5">
          <mxGeometry relative="1" as="geometry" />
        </mxCell>
        <mxCell id="jGZWiKhNGa143dclL73a-1" value="Usuário" style="shape=image;verticalLabelPosition=bottom;verticalAlign=top;imageAspect=0;aspect=fixed;image=data:image/svg+xml,PHN2ZyB4bWxucz0iaHR0cDovL3d3dy53My5vcmcvMjAwMC9zdmciIGZpbGw9Im5vbmUiIHZpZXdCb3g9IjAgMCA0NiA0NyIgaGVpZ2h0PSI0NyIgd2lkdGg9IjQ2Ij4mI3hhOzxjaXJjbGUgZmlsbD0iI0Q5RDlEOSIgcj0iMjMiIGN5PSIyNCIgY3g9IjIzIi8+JiN4YTs8cGF0aCBmaWxsPSIjQUZBQkFCIiBkPSJNMTMuODY5MiA5LjA0NDkyQzEzLjg2OTIgMTkuNDkyMyAxOS40MzM3IDIzLjQzNjcgMjMuMzg4OCAyMy40MzY3QzI3LjM0MzkgMjMuNDM2NyAzMi4xNjA0IDE4LjI2ODIgMzIuMTYwNCA5LjM4NDk2QzMyLjE2MDQgNC40Mjk3NyAyOC41NTY2IC0yLjExNTk0ZS0wNiAyMy4zODg4IDBDMTguMjg5IDIuMDg4MWUtMDYgMTMuODY5MiA0LjA4OTczIDEzLjg2OTIgOS4wNDQ5MlpNMjMuMzIwOCA0MC45ODI1QzM2LjcxNjIgNDAuNTMyMSA0MSAzMi41MDczIDQxIDMwLjg3NTFDNDEgMjkuMjQzIDM3LjE1NjMgMjIuNDQyMyAzMS4wMDQ1IDIyLjQ0MjNDMjYuNjUyNyAyOC4xNTQ5IDE4LjM1NyAyNy40NzEyIDE1LjUwMTIgMjIuMjM4M0M5LjcxMzI4IDIyLjIzODMgNC41NjEyOCAyOS42MTA2IDUuMDI5NjQgMzEuMzI1NUM1LjQ5ODAxIDMzLjA0MDUgOS45MjU0MyA0MS40MzI5IDIzLjMyMDggNDAuOTgyNVoiLz4mI3hhOzwvc3ZnPg==" vertex="1" parent="1">
          <mxGeometry x="190" y="186.5" width="46" height="47" as="geometry" />
        </mxCell>
        <mxCell id="jGZWiKhNGa143dclL73a-7" value="" style="edgeStyle=orthogonalEdgeStyle;rounded=0;orthogonalLoop=1;jettySize=auto;html=1;" edge="1" parent="1" source="jGZWiKhNGa143dclL73a-5" target="jGZWiKhNGa143dclL73a-6">
          <mxGeometry relative="1" as="geometry" />
        </mxCell>
        <mxCell id="jGZWiKhNGa143dclL73a-5" value="API REST&amp;nbsp;&lt;br style=&quot;border-color: var(--border-color);&quot;&gt;expõe endpoint" style="rounded=1;whiteSpace=wrap;html=1;" vertex="1" parent="1">
          <mxGeometry x="330" y="180" width="120" height="60" as="geometry" />
        </mxCell>
        <mxCell id="jGZWiKhNGa143dclL73a-6" value="persistem em banco de dados" style="rounded=1;whiteSpace=wrap;html=1;" vertex="1" parent="1">
          <mxGeometry x="530" y="180" width="120" height="60" as="geometry" />
        </mxCell>
        <mxCell id="DOC34deg08yGegM6_2FB-2" value="Contexto" style="text;html=1;strokeColor=none;fillColor=none;align=center;verticalAlign=middle;whiteSpace=wrap;rounded=0;fontStyle=1;fontSize=14;" vertex="1" parent="1">
          <mxGeometry x="100" y="120" width="60" height="30" as="geometry" />
        </mxCell>
        <mxCell id="tnl5tG8maM8Wkw8lYT8y-14" value="&lt;h3 style=&quot;font-weight: 600; margin: 13px 0px 3px; max-width: 590px; font-size: 20px; line-height: 28px; color: rgb(66, 66, 66); font-family: &amp;quot;Segoe Sans&amp;quot;, &amp;quot;Segoe UI&amp;quot;, &amp;quot;Segoe UI Web (West European)&amp;quot;, -apple-system, BlinkMacSystemFont, Roboto, &amp;quot;Helvetica Neue&amp;quot;, sans-serif; font-style: normal; font-variant-ligatures: normal; font-variant-caps: normal; letter-spacing: normal; orphans: 2; text-align: start; text-indent: 0px; text-transform: none; widows: 2; word-spacing: 0px; -webkit-text-stroke-width: 0px; background-color: rgb(250, 250, 250); text-decoration-thickness: initial; text-decoration-style: initial; text-decoration-color: initial;&quot;&gt;🌐&lt;span&gt;&amp;nbsp;&lt;/span&gt;&lt;strong style=&quot;font-weight: 600;&quot;&gt;Representação de Contexto no Diagrama&lt;/strong&gt;&lt;/h3&gt;&lt;ol style=&quot;margin: 4px 0px; padding-inline: 24px 0px; box-sizing: border-box; color: rgb(66, 66, 66); font-family: &amp;quot;Segoe Sans&amp;quot;, &amp;quot;Segoe UI&amp;quot;, &amp;quot;Segoe UI Web (West European)&amp;quot;, -apple-system, BlinkMacSystemFont, Roboto, &amp;quot;Helvetica Neue&amp;quot;, sans-serif; font-size: 16px; font-style: normal; font-variant-ligatures: normal; font-variant-caps: normal; font-weight: 400; letter-spacing: normal; orphans: 2; text-align: start; text-indent: 0px; text-transform: none; widows: 2; word-spacing: 0px; -webkit-text-stroke-width: 0px; background-color: rgb(250, 250, 250); text-decoration-thickness: initial; text-decoration-style: initial; text-decoration-color: initial;&quot;&gt;&lt;li style=&quot;padding-inline-start: 4px;&quot;&gt;&lt;p style=&quot;display: block; font-weight: 400; margin: 0px 0px 8px; overflow-wrap: break-word;&quot;&gt;&lt;strong style=&quot;font-weight: 600;&quot;&gt;Usuário&lt;/strong&gt;&lt;/p&gt;&lt;ul style=&quot;list-style: disc; margin: -8px 0px 0px; padding: 0px 0px 8px; padding-inline: 24px 0px; box-sizing: border-box;&quot;&gt;&lt;li style=&quot;padding-inline-start: 4px;&quot;&gt;Representa o ator externo que interage com o sistema.&lt;/li&gt;&lt;li style=&quot;padding-inline-start: 4px;&quot;&gt;Pode ser um cliente, sistema externo ou operador humano.&lt;/li&gt;&lt;/ul&gt;&lt;/li&gt;&lt;li style=&quot;padding-inline-start: 4px;&quot;&gt;&lt;p style=&quot;display: block; font-weight: 400; margin: 0px 0px 8px; overflow-wrap: break-word;&quot;&gt;&lt;strong style=&quot;font-weight: 600;&quot;&gt;API REST expõe endpoint&lt;/strong&gt;&lt;/p&gt;&lt;ul style=&quot;list-style: disc; margin: -8px 0px 0px; padding: 0px 0px 8px; padding-inline: 24px 0px; box-sizing: border-box;&quot;&gt;&lt;li style=&quot;padding-inline-start: 4px;&quot;&gt;Representa o sistema principal que está sendo modelado.&lt;/li&gt;&lt;li style=&quot;padding-inline-start: 4px;&quot;&gt;É o foco da arquitetura: a aplicação que oferece serviços via endpoints HTTP.&lt;/li&gt;&lt;/ul&gt;&lt;/li&gt;&lt;li style=&quot;padding-inline-start: 4px;&quot;&gt;&lt;p style=&quot;display: block; font-weight: 400; margin: 0px 0px 8px; overflow-wrap: break-word;&quot;&gt;&lt;strong style=&quot;font-weight: 600;&quot;&gt;Persistem em banco de dados&lt;/strong&gt;&lt;/p&gt;&lt;ul style=&quot;list-style: disc; margin: -8px 0px 0px; padding: 0px 0px 8px; padding-inline: 24px 0px; box-sizing: border-box;&quot;&gt;&lt;li style=&quot;padding-inline-start: 4px;&quot;&gt;Representa o armazenamento de dados.&lt;/li&gt;&lt;li style=&quot;padding-inline-start: 4px;&quot;&gt;Mostra que a API REST interage com um banco de dados para persistência.&lt;/li&gt;&lt;/ul&gt;&lt;/li&gt;&lt;/ol&gt;" style="text;whiteSpace=wrap;html=1;" vertex="1" parent="1">
          <mxGeometry x="810" y="90" width="560" height="310" as="geometry" />
        </mxCell>
        <mxCell id="tnl5tG8maM8Wkw8lYT8y-15" value="1" style="rounded=0;whiteSpace=wrap;html=1;labelBackgroundColor=none;fontFamily=Verdana;fontSize=14;fillColor=#004C99;strokeColor=#B3B3B3;fontColor=#FFFFFF;fontStyle=1;strokeWidth=2;" vertex="1" parent="1">
          <mxGeometry x="203" y="270" width="20" height="20" as="geometry" />
        </mxCell>
        <mxCell id="tnl5tG8maM8Wkw8lYT8y-16" value="2" style="rounded=0;whiteSpace=wrap;html=1;labelBackgroundColor=none;fontFamily=Verdana;fontSize=14;fillColor=#004C99;strokeColor=#B3B3B3;fontColor=#FFFFFF;fontStyle=1;strokeWidth=2;" vertex="1" parent="1">
          <mxGeometry x="380" y="270" width="20" height="20" as="geometry" />
        </mxCell>
        <mxCell id="tnl5tG8maM8Wkw8lYT8y-17" value="3" style="rounded=0;whiteSpace=wrap;html=1;labelBackgroundColor=none;fontFamily=Verdana;fontSize=14;fillColor=#004C99;strokeColor=#B3B3B3;fontColor=#FFFFFF;fontStyle=1;strokeWidth=2;" vertex="1" parent="1">
          <mxGeometry x="582" y="270" width="20" height="20" as="geometry" />
        </mxCell>
      </root>
    </mxGraphModel>
  </diagram>
  <diagram name="N2" id="px2nlyip_qzKAVkQy50_">
    <mxGraphModel dx="2427" dy="1520" grid="1" gridSize="10" guides="1" tooltips="1" connect="1" arrows="1" fold="1" page="1" pageScale="1" pageWidth="827" pageHeight="1169" math="0" shadow="0">
      <root>
        <mxCell id="WdGUqw4PJgWpHllO340i-0" />
        <mxCell id="WdGUqw4PJgWpHllO340i-1" parent="WdGUqw4PJgWpHllO340i-0" />
        <mxCell id="WdGUqw4PJgWpHllO340i-9" value="" style="rounded=0;whiteSpace=wrap;html=1;fillColor=none;" vertex="1" parent="WdGUqw4PJgWpHllO340i-1">
          <mxGeometry x="80" y="480" width="669" height="360" as="geometry" />
        </mxCell>
        <mxCell id="WdGUqw4PJgWpHllO340i-10" value="Containers" style="text;html=1;strokeColor=none;fillColor=none;align=center;verticalAlign=middle;whiteSpace=wrap;rounded=0;fontStyle=1;fontSize=14;" vertex="1" parent="WdGUqw4PJgWpHllO340i-1">
          <mxGeometry x="90" y="480" width="60" height="30" as="geometry" />
        </mxCell>
        <mxCell id="WdGUqw4PJgWpHllO340i-11" style="edgeStyle=orthogonalEdgeStyle;rounded=0;orthogonalLoop=1;jettySize=auto;html=1;" edge="1" parent="WdGUqw4PJgWpHllO340i-1" source="WdGUqw4PJgWpHllO340i-12" target="WdGUqw4PJgWpHllO340i-13">
          <mxGeometry relative="1" as="geometry" />
        </mxCell>
        <mxCell id="WdGUqw4PJgWpHllO340i-12" value="Demo-API" style="shape=image;verticalLabelPosition=bottom;verticalAlign=top;imageAspect=0;aspect=fixed;image=data:image/svg+xml,PHN2ZyB4bWxucz0iaHR0cDovL3d3dy53My5vcmcvMjAwMC9zdmciIGZpbGw9Im5vbmUiIHZpZXdCb3g9IjAgMCA0MyAzOSIgaGVpZ2h0PSIzOSIgd2lkdGg9IjQzIj4mI3hhOzxwYXRoIGZpbGw9IiNGMkYyRjIiIGQ9Ik0zNS44MzIyIDM2SDMuMTcwOTlDMS40MjA2IDM2IDAgMzQuNTMzMiAwIDMyLjcyNThWMy40MTUwMUMwIDEuNTI5MDYgMS40ODA4NSAxLjQzMDUxZS0wNiAzLjMwNzM0IDEuNDMwNTFlLTA2SDM1LjY5MjdDMzcuNTE5MSAxLjQzMDUxZS0wNiAzOSAxLjUyOTA2IDM5IDMuNDE1MDFWMzIuNzI1OEMzOS4wMDMyIDM0LjUzNjQgMzcuNTgyNiAzNiAzNS44MzIyIDM2WiIvPiYjeGE7PHBhdGggZmlsbD0iIzQ0NzJDNCIgZD0iTTAgMkMwIDAuODk1NDMgMC44OTU0MzEgMCAyIDBIMzdDMzguMTA0NiAwIDM5IDAuODk1NDMxIDM5IDJWNkgwVjJaIi8+JiN4YTs8Y2lyY2xlIGZpbGw9IiNGRUU3OUEiIHI9IjEiIGN5PSIzIiBjeD0iNCIvPiYjeGE7PGNpcmNsZSBmaWxsPSIjQzAwMDAwIiByPSIxIiBjeT0iMyIgY3g9IjExIi8+JiN4YTs8Y2lyY2xlIGZpbGw9IiM5MkQwNTAiIHI9IjEiIGN5PSIzIiBjeD0iNyIvPiYjeGE7PHBhdGggZmlsbD0iIzQ0NzJDNCIgZD0iTTIgMjJIMTdWMjBIMlYyMloiLz4mI3hhOzxwYXRoIGZpbGw9IiM0NDcyQzQiIGQ9Ik0yIDI4SDE3VjI2SDJWMjhaIi8+JiN4YTs8cGF0aCBmaWxsPSIjNDQ3MkM0IiBkPSJNMiAyNUgxN1YyM0gyVjI1WiIvPiYjeGE7PHBhdGggZmlsbD0iIzQ0NzJDNCIgZD0iTTIgMzFIMTJWMjlIMlYzMVoiLz4mI3hhOzxwYXRoIGZpbGw9IiM0NDcyQzQiIGQ9Ik0zMi4zMDY3IDE2LjE3MzdDMzIuNzk4IDE2LjE4OTQgMzMuMjA1IDE2LjU1OTggMzMuMjY2OCAxNy4wNDc1TDMzLjM1NTggMTcuNzQ5OUMzNC4yNTgzIDE4LjAxMTIgMzUuMTA4OSAxOC4zOTU3IDM1Ljg4NzkgMTguODg0MUwzNi45MzgyIDE4LjI5MDFDMzcuMzY3NiAxOC4wNDcyIDM3LjkwOTkgMTguMTUzOCAzOC4yMTU1IDE4LjU0MUwzOS45NDg0IDIwLjczNjdDNDAuMjU2MSAyMS4xMjY3IDQwLjIzMSAyMS42ODM0IDM5Ljg4OTMgMjIuMDQ0TDM5LjM3ODEgMjIuNTgzN0MzOS43Mjk5IDIzLjIyNTYgNDAuMDEzNyAyMy45MTAxIDQwLjIxOTggMjQuNjI3OEw0MC44OTMxIDI0LjYyNkM0MS40MzU5IDI0LjYyNDYgNDEuODgwNyAyNS4wNTY0IDQxLjg5NTQgMjUuNTk5TDQxLjk3MjEgMjguNDM4N0M0MS45ODU4IDI4Ljk0NDYgNDEuNjE5NCAyOS4zODA5IDQxLjExODggMjkuNDU1TDQwLjM3ODMgMjkuNTY0NUM0MC4xNDE0IDMwLjY0OTQgMzkuNzI5MiAzMS42NjkyIDM5LjE3MjcgMzIuNTkyNUwzOS40NTE2IDMzLjAzMzVDMzkuNzA1NSAzMy40MzUgMzkuNjQxOCAzMy45NTk3IDM5LjI5OTMgMzQuMjg4OUwzNy40NTk0IDM2LjA1NzFDMzcuMTI2OCAzNi4zNzY4IDM2LjYxODUgMzYuNDI3NCAzNi4yMjk0IDM2LjE3OTVMMzUuODY2OSAzNS45NDg3QzM0LjkyODggMzYuNTMzNSAzMy44ODcgMzYuOTY4MiAzMi43NzUgMzcuMjE4OEwzMi43MjQ1IDM3LjYwOUMzMi42NjE4IDM4LjA5MzMgMzIuMjU4NSAzOC40NjE1IDMxLjc3MDUgMzguNDc5OUwyOC44Mjg1IDM4LjU5MDlDMjguMzE5OSAzOC42MSAyNy44NzgxIDM4LjI0NDIgMjcuODAyIDM3Ljc0MUwyNy42OTgxIDM3LjA1MzRDMjYuNTUwNCAzNi43MTM5IDI1LjQ4NzcgMzYuMTc0OSAyNC41NTA3IDM1LjQ3NjNMMjMuNzc3MSAzNS44NjkyQzIzLjM3MjggMzYuMDc0NiAyMi44ODA4IDM1Ljk4MjEgMjIuNTc4NiAzNS42NDRMMjAuNjUyMyAzMy40ODgyQzIwLjI5OTUgMzMuMDkzNCAyMC4zMTU2IDMyLjQ5MiAyMC42ODkgMzIuMTE2NkwyMS4zNDY1IDMxLjQ1NTZDMjEuMDM2NCAzMC43NTA4IDIwLjgwNDkgMzAuMDAzNSAyMC42NjI5IDI5LjIyNDdMMTkuOTk3MiAyOS4xNjg1QzE5LjQ2MjMgMjkuMTIzNCAxOS4wNTg0IDI4LjY2MzkgMTkuMDgyMyAyOC4xMjc2TDE5LjIwNDMgMjUuMzgxN0MxOS4yMjU1IDI0LjkwNDkgMTkuNTgwNyAyNC41MDk2IDIwLjA1MjUgMjQuNDM3NkwyMC45OTE0IDI0LjI5NDNDMjEuMjQ3NSAyMy41MDc2IDIxLjU5ODEgMjIuNzYzMyAyMi4wMjk5IDIyLjA3NDhMMjEuNjU0MSAyMS42OTA5QzIxLjI2NTUgMjEuMjkzOSAyMS4yNzUgMjAuNjU2MiAyMS42NzUzIDIwLjI3MDlMMjMuOTAzOSAxOC4xMjU4QzI0LjI2NDMgMTcuNzc5IDI0LjgyNTYgMTcuNzUxNyAyNS4yMTc5IDE4LjA2MjFMMjUuODE4NyAxOC41Mzc0QzI2LjYxMzcgMTguMTEyMiAyNy40NzI4IDE3Ljc5MDYgMjguMzc3OSAxNy41OTA5TDI4LjUwMzIgMTYuOTA0M0MyOC41OTIxIDE2LjQxNzIgMjkuMDI0MSAxNi4wNjg1IDI5LjUxOSAxNi4wODQ0TDMyLjMwNjcgMTYuMTczN1pNMzAuNjQyIDMzLjIzOEMzMy45NzM5IDMzLjIxNTUgMzYuNjU2NyAzMC40OTYyIDM2LjYzNDIgMjcuMTY0M0MzNi42MTE2IDIzLjgzMjQgMzMuODkyNCAyMS4xNDk2IDMwLjU2MDUgMjEuMTcyMUMyNy4yMjg2IDIxLjE5NDYgMjQuNTQ1OCAyMy45MTM5IDI0LjU2ODMgMjcuMjQ1OEMyNC41OTA4IDMwLjU3NzcgMjcuMzEwMSAzMy4yNjA1IDMwLjY0MiAzMy4yMzhaIiBjbGlwLXJ1bGU9ImV2ZW5vZGQiIGZpbGwtcnVsZT0iZXZlbm9kZCIvPiYjeGE7PHBhdGggZmlsbD0iI0FGQUJBQiIgZD0iTTMuNDg2MTUgMTZIMi4yMjA1Mkw0LjUyNDg2IDkuNDU0NTRINS45ODg2M0w4LjI5NjE2IDE2SDcuMDMwNTRMNS4yODIzMSAxMC43OTY5SDUuMjMxMThMMy40ODYxNSAxNlpNMy41Mjc3IDEzLjQzMzZINi45Nzk0VjE0LjM4NkgzLjUyNzdWMTMuNDMzNloiLz4mI3hhOzxwYXRoIGZpbGw9IiNBRkFCQUIiIGQ9Ik05LjE1ODI5IDE2VjkuNDU0NTRIMTEuNjEyOEMxMi4xMTU3IDkuNDU0NTQgMTIuNTM3NiA5LjU0ODI5IDEyLjg3ODUgOS43MzU3OUMxMy4yMjE1IDkuOTIzMjkgMTMuNDgwNCAxMC4xODExIDEzLjY1NTEgMTAuNTA5MkMxMy44MzE5IDEwLjgzNTIgMTMuOTIwNCAxMS4yMDYgMTMuOTIwNCAxMS42MjE0QzEzLjkyMDQgMTIuMDQxMiAxMy44MzE5IDEyLjQxNDEgMTMuNjU1MSAxMi43NDAxQzEzLjQ3ODIgMTMuMDY2IDEzLjIxNzIgMTMuMzIyOCAxMi44NzIxIDEzLjUxMDNDMTIuNTI2OSAxMy42OTU3IDEyLjEwMTggMTMuNzg4NCAxMS41OTY5IDEzLjc4ODRIOS45NzAwOFYxMi44MTM2SDExLjQzNzFDMTEuNzMxMSAxMi44MTM2IDExLjk3MTkgMTIuNzYyNCAxMi4xNTk0IDEyLjY2MDJDMTIuMzQ2OSAxMi41NTc5IDEyLjQ4NTQgMTIuNDE3MyAxMi41NzQ4IDEyLjIzODNDMTIuNjY2NSAxMi4wNTkzIDEyLjcxMjMgMTEuODUzNyAxMi43MTIzIDExLjYyMTRDMTIuNzEyMyAxMS4zODkyIDEyLjY2NjUgMTEuMTg0NyAxMi41NzQ4IDExLjAwNzhDMTIuNDg1NCAxMC44MzEgMTIuMzQ1OCAxMC42OTM1IDEyLjE1NjIgMTAuNTk1NUMxMS45Njg3IDEwLjQ5NTQgMTEuNzI2OCAxMC40NDUzIDExLjQzMDcgMTAuNDQ1M0gxMC4zNDRWMTZIOS4xNTgyOVoiLz4mI3hhOzxwYXRoIGZpbGw9IiNBRkFCQUIiIGQ9Ik0xNi4xMzYgOS40NTQ1NFYxNkgxNC45NTAzVjkuNDU0NTRIMTYuMTM2WiIvPiYjeGE7PC9zdmc+" vertex="1" parent="WdGUqw4PJgWpHllO340i-1">
          <mxGeometry x="440" y="551.71" width="66" height="59.86" as="geometry" />
        </mxCell>
        <mxCell id="WdGUqw4PJgWpHllO340i-13" value="Db&#xa;H2" style="shape=image;verticalLabelPosition=bottom;verticalAlign=top;imageAspect=0;aspect=fixed;image=data:image/svg+xml,PHN2ZyB4bWxucz0iaHR0cDovL3d3dy53My5vcmcvMjAwMC9zdmciIGZpbGw9Im5vbmUiIHZpZXdCb3g9IjAgMCAzNSA0MSIgaGVpZ2h0PSI0MSIgd2lkdGg9IjM1Ij4mI3hhOzxlbGxpcHNlIGZpbGw9IiM1QjlCRDQiIHJ5PSI0LjI1NDcyIiByeD0iMTcuMDE4OSIgY3k9IjQuMjU0NzIiIGN4PSIxNy4wMTg5Ii8+JiN4YTs8cGF0aCBmaWxsPSIjNUI5QkQ0IiBkPSJNMzMuMjY0MiA3LjczNTg2QzIxLjI3MzYgMTEuNjUyMiAxMi43NjQyIDExLjI2MDYgMC43NzM1OSA3LjczNTg2VjE1Ljk2MDJDMTEuMjE3IDIwLjY1OTggMjMuNTk0MyAyMC4yNjgyIDMzLjI2NDIgMTUuOTYwMlY3LjczNTg2WiIvPiYjeGE7PHBhdGggZmlsbD0iIzVCOUJENCIgZD0iTTMzLjI2NDIgMTguNTY2QzIxLjI3MzYgMjIuNDgyNCAxMi43NjQyIDIyLjA5MDggMC43NzM1OSAxOC41NjZWMjYuNzkwNEMxMS4yMTcgMzEuNDkgMjMuNTk0MyAzMS4wOTg0IDMzLjI2NDIgMjYuNzkwNFYxOC41NjZaIi8+JiN4YTs8cGF0aCBmaWxsPSIjNUI5QkQ0IiBkPSJNMzMuMjY0MiAyOS4zOTYyQzIxLjI3MzYgMzMuMzEyNiAxMi43NjQyIDMyLjkyMDkgMC43NzM1OSAyOS4zOTYyVjM3LjYyMDVDMTEuMjE3IDQyLjMyMDIgMjMuNTk0MyA0MS45Mjg1IDMzLjI2NDIgMzcuNjIwNVYyOS4zOTYyWiIvPiYjeGE7PGNpcmNsZSBmaWxsPSIjRkVFNzlBIiByPSIxLjU0NzE3IiBjeT0iMTMuMTUwOSIgY3g9IjMwLjE2OTgiLz4mI3hhOzxjaXJjbGUgZmlsbD0iI0ZFRTc5QSIgcj0iMS41NDcxNyIgY3k9IjIzLjk4MTEiIGN4PSIzMC4xNjk4Ii8+JiN4YTs8Y2lyY2xlIGZpbGw9IiNGRUU3OUEiIHI9IjEuNTQ3MTciIGN5PSIzNC44MTEzIiBjeD0iMzAuMTY5OCIvPiYjeGE7PC9zdmc+" vertex="1" parent="WdGUqw4PJgWpHllO340i-1">
          <mxGeometry x="660" y="542.99" width="66" height="77.31" as="geometry" />
        </mxCell>
        <mxCell id="WdGUqw4PJgWpHllO340i-14" style="edgeStyle=orthogonalEdgeStyle;rounded=0;orthogonalLoop=1;jettySize=auto;html=1;entryX=0;entryY=0.5;entryDx=0;entryDy=0;" edge="1" parent="WdGUqw4PJgWpHllO340i-1" source="WdGUqw4PJgWpHllO340i-15" target="WdGUqw4PJgWpHllO340i-12">
          <mxGeometry relative="1" as="geometry" />
        </mxCell>
        <mxCell id="WdGUqw4PJgWpHllO340i-15" value="sistemas&#xa;web" style="shape=image;verticalLabelPosition=bottom;verticalAlign=top;imageAspect=0;aspect=fixed;image=data:image/svg+xml,PHN2ZyB4bWxucz0iaHR0cDovL3d3dy53My5vcmcvMjAwMC9zdmciIGZpbGw9Im5vbmUiIHZpZXdCb3g9IjAgMCA0NiA0OSIgaGVpZ2h0PSI0OSIgd2lkdGg9IjQ2Ij4mI3hhOzxjaXJjbGUgZmlsbD0iI0Q5RDlEOSIgcj0iMjMiIGN5PSIyMyIgY3g9IjIzIi8+JiN4YTs8cGF0aCBmaWxsPSIjNUI5QkQ0IiBkPSJNMCA1SDQ2VjM5LjVIMFY1WiIvPiYjeGE7PHBhdGggZmlsbD0iIzAwM0M5OCIgZD0iTTAgNUg0NlYzNS4xODc1SDBWNVoiLz4mI3hhOzxwYXRoIGZpbGw9IndoaXRlIiBkPSJNMS40Mzc1IDcuMTU2MjVINDQuNTYyNVYzMy43NUgxLjQzNzVWNy4xNTYyNVoiLz4mI3hhOzxwYXRoIGZpbGw9IiM1QjlCRDQiIGQ9Ik0xNi41MzEyIDQ2LjMyODFMMTcuNjA5NCAzOS41SDI4Ljc1TDI5LjQ2ODggNDYuMzI4MUgxNi41MzEyWiIvPiYjeGE7PHBhdGggZmlsbD0iIzIyNzRCNiIgZD0iTTE2Ljg5MDYgNDQuNTMxMkMyMC4yNDQ4IDQyLjg1NDIgMjguMTc1IDM5LjUgMjguNzUgMzkuNUgxNy42MDk0TDE2Ljg5MDYgNDQuNTMxMloiLz4mI3hhOzxyZWN0IGZpbGw9IiNDQkRGRjEiIGhlaWdodD0iMi4xNTYyNSIgd2lkdGg9IjIwLjEyNSIgeT0iNDUuOTY4OCIgeD0iMTIuOTM3NSIvPiYjeGE7PHBhdGggZmlsbD0iI0Y4RDExNyIgZD0iTTkuNzcwNTEgMTYuMTk4VjEwQzEzLjc1NDkgMTAuODg1NCAxNS4xMjUgMTIuNzU3IDE1Ljk2ODUgMTYuMTk4SDkuNzcwNTFaIi8+JiN4YTs8cGF0aCBmaWxsPSIjMUQ0OTk5IiBkPSJNOC44ODUwNyAxNy4wODM0TDguNDQyMzYgMTAuODg1NEM4LjQ0MjM2IDEwLjg4NTQgNC4wMTUyMiAxMS4zMjgxIDMuMTI5NzggMTUuNzU1M0MyLjI0NDM1IDIwLjE4MjQgNi4wMTc1MSAyMy44MiAxMC41NTAzIDIyLjgzODdDMTUuMDgzMSAyMS44NTc1IDE0LjY0MDQgMTcuMDgzNCAxNC42NDA0IDE3LjA4MzRIOC44ODUwN1oiLz4mI3hhOzxwYXRoIGZpbGw9IiMxRDQ5OTkiIGQ9Ik0yMC4yOTM1IDExLjEyNzdDMjAuMjkzNSAxMC45OTA2IDIwLjIyODYgMTAgMjAuODAyOSAxMEMyMS4zNzcyIDEwIDIxLjM3NzIgMTAuNTYzOCAyMS4zNzcyIDExLjEyNzdWMjEuOTM0OEg0Mi4wMjlDNDIuMjgyOSAyMS45MzQ4IDQyLjUyNjQgMjEuOTg5MiA0Mi43MDU5IDIyLjA4NjJDNDIuODg1NCAyMi4xODMxIDQyLjk4NjIgMjIuMzE0NiA0Mi45ODYyIDIyLjQ1MTZDNDIuOTg2MiAyMi41ODg3IDQyLjg4NTQgMjIuNzIwMiA0Mi43MDU5IDIyLjgxNzFDNDIuNTI2NCAyMi45MTQxIDQyLjI4MjkgMjIuOTY4NSA0Mi4wMjkgMjIuOTY4NUgyMC45NzA0QzIwLjcxNjUgMjIuOTY4NSAyMC40NzMxIDIyLjkxNDEgMjAuMjkzNiAyMi44MTcxQzIwLjI5MzYgMjIuODE3MSAyMC4yOTM2IDIyLjU0MTcgMjAuMjkzNiAyMi40MDQ3TDIwLjI5MzUgMTEuMTI3N1oiLz4mI3hhOzxwYXRoIGZpbGw9IiMwRUExOUUiIGQ9Ik00MC45MjMxIDEyLjY4MDJDNDAuOTIzMSAxMi41ODM4IDQwLjg3MzUgMTIuNDg5NCA0MC43Nzk5IDEyLjQwNzRDNDAuNjg2MyAxMi4zMjU1IDQwLjU1MjUgMTIuMjU5MyA0MC4zOTMzIDEyLjIxNjJDNDAuMjM0MSAxMi4xNzMxIDQwLjA1NTkgMTIuMTU0OSAzOS44Nzg2IDEyLjE2MzVDMzkuNzAxMyAxMi4xNzIyIDM5LjUzMiAxMi4yMDc0IDM5LjM4OTYgMTIuMjY1MkwzMi4yMzM4IDE1LjE3MDFMMjcuMzUyNCAxMy42MTY3QzI3LjIxNDkgMTMuNTcyOCAyNy4wNTkyIDEzLjU0ODMgMjYuODk5NyAxMy41NDUyQzI2Ljc0MDEgMTMuNTQyMiAyNi41ODE3IDEzLjU2MDggMjYuNDM4OCAxMy41OTk0TDIyLjM1NDUgMTQuNjEzNlYyMC44MDcxSDQwLjkyMzFWMTIuNjgwMloiLz4mI3hhOzxyZWN0IGZpbGw9IiNEOUQ5RDkiIHJ4PSIxLjUiIGhlaWdodD0iMyIgd2lkdGg9IjQwIiB5PSIyNyIgeD0iMyIvPiYjeGE7PGNpcmNsZSBmaWxsPSIjMUQ0OTk5IiByPSIxLjUiIGN5PSIyOC41IiBjeD0iMzAuNSIvPiYjeGE7PC9zdmc+" vertex="1" parent="WdGUqw4PJgWpHllO340i-1">
          <mxGeometry x="130" y="546.49" width="66" height="70.3" as="geometry" />
        </mxCell>
        <mxCell id="WdGUqw4PJgWpHllO340i-16" style="edgeStyle=orthogonalEdgeStyle;rounded=0;orthogonalLoop=1;jettySize=auto;html=1;" edge="1" parent="WdGUqw4PJgWpHllO340i-1" source="WdGUqw4PJgWpHllO340i-17">
          <mxGeometry relative="1" as="geometry">
            <mxPoint x="296" y="580" as="targetPoint" />
          </mxGeometry>
        </mxCell>
        <mxCell id="WdGUqw4PJgWpHllO340i-17" value="Metodos" style="swimlane;fontStyle=0;childLayout=stackLayout;horizontal=1;startSize=30;horizontalStack=0;resizeParent=1;resizeParentMax=0;resizeLast=0;collapsible=1;marginBottom=0;whiteSpace=wrap;html=1;" vertex="1" parent="WdGUqw4PJgWpHllO340i-1">
          <mxGeometry x="226" y="690" width="140" height="120" as="geometry" />
        </mxCell>
        <mxCell id="WdGUqw4PJgWpHllO340i-18" value="get" style="text;strokeColor=none;fillColor=none;align=left;verticalAlign=middle;spacingLeft=4;spacingRight=4;overflow=hidden;points=[[0,0.5],[1,0.5]];portConstraint=eastwest;rotatable=0;whiteSpace=wrap;html=1;" vertex="1" parent="WdGUqw4PJgWpHllO340i-17">
          <mxGeometry y="30" width="140" height="30" as="geometry" />
        </mxCell>
        <mxCell id="WdGUqw4PJgWpHllO340i-19" value="pos" style="text;strokeColor=none;fillColor=none;align=left;verticalAlign=middle;spacingLeft=4;spacingRight=4;overflow=hidden;points=[[0,0.5],[1,0.5]];portConstraint=eastwest;rotatable=0;whiteSpace=wrap;html=1;" vertex="1" parent="WdGUqw4PJgWpHllO340i-17">
          <mxGeometry y="60" width="140" height="30" as="geometry" />
        </mxCell>
        <mxCell id="WdGUqw4PJgWpHllO340i-20" value="delete" style="text;strokeColor=none;fillColor=none;align=left;verticalAlign=middle;spacingLeft=4;spacingRight=4;overflow=hidden;points=[[0,0.5],[1,0.5]];portConstraint=eastwest;rotatable=0;whiteSpace=wrap;html=1;" vertex="1" parent="WdGUqw4PJgWpHllO340i-17">
          <mxGeometry y="90" width="140" height="30" as="geometry" />
        </mxCell>
        <mxCell id="WdGUqw4PJgWpHllO340i-41" value="&lt;h3 style=&quot;font-weight: 600; margin: 13px 0px 3px; max-width: 590px; font-size: 20px; line-height: 28px; color: rgb(66, 66, 66); font-family: &amp;quot;Segoe Sans&amp;quot;, &amp;quot;Segoe UI&amp;quot;, &amp;quot;Segoe UI Web (West European)&amp;quot;, -apple-system, BlinkMacSystemFont, Roboto, &amp;quot;Helvetica Neue&amp;quot;, sans-serif; font-style: normal; font-variant-ligatures: normal; font-variant-caps: normal; letter-spacing: normal; orphans: 2; text-align: start; text-indent: 0px; text-transform: none; widows: 2; word-spacing: 0px; -webkit-text-stroke-width: 0px; background-color: rgb(250, 250, 250); text-decoration-thickness: initial; text-decoration-style: initial; text-decoration-color: initial;&quot;&gt;🧱&lt;span&gt;&amp;nbsp;&lt;/span&gt;&lt;strong style=&quot;font-weight: 600;&quot;&gt;Representação de Containers no Diagrama&lt;/strong&gt;&lt;/h3&gt;&lt;ol style=&quot;margin: 4px 0px; padding-inline: 24px 0px; box-sizing: border-box; color: rgb(66, 66, 66); font-family: &amp;quot;Segoe Sans&amp;quot;, &amp;quot;Segoe UI&amp;quot;, &amp;quot;Segoe UI Web (West European)&amp;quot;, -apple-system, BlinkMacSystemFont, Roboto, &amp;quot;Helvetica Neue&amp;quot;, sans-serif; font-size: 16px; font-style: normal; font-variant-ligatures: normal; font-variant-caps: normal; font-weight: 400; letter-spacing: normal; orphans: 2; text-align: start; text-indent: 0px; text-transform: none; widows: 2; word-spacing: 0px; -webkit-text-stroke-width: 0px; background-color: rgb(250, 250, 250); text-decoration-thickness: initial; text-decoration-style: initial; text-decoration-color: initial;&quot;&gt;&lt;li style=&quot;padding-inline-start: 4px;&quot;&gt;&lt;p style=&quot;display: block; font-weight: 400; margin: 0px 0px 8px; overflow-wrap: break-word;&quot;&gt;&lt;strong style=&quot;font-weight: 600;&quot;&gt;Sistemas Web&lt;/strong&gt;&lt;/p&gt;&lt;ul style=&quot;list-style: disc; margin: -8px 0px 0px; padding: 0px 0px 8px; padding-inline: 24px 0px; box-sizing: border-box;&quot;&gt;&lt;li style=&quot;padding-inline-start: 4px;&quot;&gt;Representa os clientes que consomem a API (ex: Swagger UI, frontend, Postman).&lt;/li&gt;&lt;li style=&quot;padding-inline-start: 4px;&quot;&gt;É o ponto de entrada externo no sistema.&lt;/li&gt;&lt;/ul&gt;&lt;/li&gt;&lt;li style=&quot;padding-inline-start: 4px;&quot;&gt;&lt;p style=&quot;display: block; font-weight: 400; margin: 0px 0px 8px; overflow-wrap: break-word;&quot;&gt;&lt;strong style=&quot;font-weight: 600;&quot;&gt;Demo-API&lt;/strong&gt;&lt;/p&gt;&lt;ul style=&quot;list-style: disc; margin: -8px 0px 0px; padding: 0px 0px 8px; padding-inline: 24px 0px; box-sizing: border-box;&quot;&gt;&lt;li style=&quot;padding-inline-start: 4px;&quot;&gt;É o contêiner principal da aplicação Spring Boot.&lt;/li&gt;&lt;li style=&quot;padding-inline-start: 4px;&quot;&gt;Contém os componentes internos como Controller, Service, Repository, Model.&lt;/li&gt;&lt;li style=&quot;padding-inline-start: 4px;&quot;&gt;Expõe os métodos HTTP:&lt;span&gt;&amp;nbsp;&lt;/span&gt;&lt;code style=&quot;font-family: source-code-pro, Menlo, Monaco, Consolas, &amp;quot;Courier New&amp;quot;, monospace;&quot;&gt;GET&lt;/code&gt;,&lt;span&gt;&amp;nbsp;&lt;/span&gt;&lt;code style=&quot;font-family: source-code-pro, Menlo, Monaco, Consolas, &amp;quot;Courier New&amp;quot;, monospace;&quot;&gt;POST&lt;/code&gt;,&lt;span&gt;&amp;nbsp;&lt;/span&gt;&lt;code style=&quot;font-family: source-code-pro, Menlo, Monaco, Consolas, &amp;quot;Courier New&amp;quot;, monospace;&quot;&gt;DELETE&lt;/code&gt;&lt;span&gt;&amp;nbsp;&lt;/span&gt;(indicados no box &quot;Métodos&quot;).&lt;/li&gt;&lt;/ul&gt;&lt;/li&gt;&lt;li style=&quot;padding-inline-start: 4px;&quot;&gt;&lt;p style=&quot;display: block; font-weight: 400; margin: 0px 0px 8px; overflow-wrap: break-word;&quot;&gt;&lt;strong style=&quot;font-weight: 600;&quot;&gt;Db H2&lt;/strong&gt;&lt;/p&gt;&lt;ul style=&quot;list-style: disc; margin: -8px 0px 0px; padding: 0px 0px 8px; padding-inline: 24px 0px; box-sizing: border-box;&quot;&gt;&lt;li style=&quot;padding-inline-start: 4px;&quot;&gt;Banco de dados em memória.&lt;/li&gt;&lt;li style=&quot;padding-inline-start: 4px;&quot;&gt;Armazena os dados persistidos pela API.&lt;/li&gt;&lt;/ul&gt;&lt;/li&gt;&lt;/ol&gt;" style="text;whiteSpace=wrap;html=1;" vertex="1" parent="WdGUqw4PJgWpHllO340i-1">
          <mxGeometry x="780" y="480" width="560" height="350" as="geometry" />
        </mxCell>
        <mxCell id="WdGUqw4PJgWpHllO340i-42" value="1" style="rounded=0;whiteSpace=wrap;html=1;labelBackgroundColor=none;fontFamily=Verdana;fontSize=14;fillColor=#004C99;strokeColor=#B3B3B3;fontColor=#FFFFFF;fontStyle=1;strokeWidth=2;" vertex="1" parent="WdGUqw4PJgWpHllO340i-1">
          <mxGeometry x="150" y="660" width="20" height="20" as="geometry" />
        </mxCell>
        <mxCell id="WdGUqw4PJgWpHllO340i-43" value="2" style="rounded=0;whiteSpace=wrap;html=1;labelBackgroundColor=none;fontFamily=Verdana;fontSize=14;fillColor=#004C99;strokeColor=#B3B3B3;fontColor=#FFFFFF;fontStyle=1;strokeWidth=2;" vertex="1" parent="WdGUqw4PJgWpHllO340i-1">
          <mxGeometry x="463" y="660" width="20" height="20" as="geometry" />
        </mxCell>
        <mxCell id="WdGUqw4PJgWpHllO340i-44" value="3" style="rounded=0;whiteSpace=wrap;html=1;labelBackgroundColor=none;fontFamily=Verdana;fontSize=14;fillColor=#004C99;strokeColor=#B3B3B3;fontColor=#FFFFFF;fontStyle=1;strokeWidth=2;" vertex="1" parent="WdGUqw4PJgWpHllO340i-1">
          <mxGeometry x="683" y="660" width="20" height="20" as="geometry" />
        </mxCell>
      </root>
    </mxGraphModel>
  </diagram>
  <diagram name="N3" id="ajckTK5gFc7hK5pVcFpL">
    <mxGraphModel dx="1907" dy="1194" grid="1" gridSize="10" guides="1" tooltips="1" connect="1" arrows="1" fold="1" page="1" pageScale="1" pageWidth="827" pageHeight="1169" math="0" shadow="0">
      <root>
        <mxCell id="Y00WJjXvsSGyCvDDhoFY-0" />
        <mxCell id="Y00WJjXvsSGyCvDDhoFY-1" parent="Y00WJjXvsSGyCvDDhoFY-0" />
        <mxCell id="Y00WJjXvsSGyCvDDhoFY-21" value="" style="rounded=0;whiteSpace=wrap;html=1;fillColor=none;" vertex="1" parent="Y00WJjXvsSGyCvDDhoFY-1">
          <mxGeometry x="79" y="950" width="669" height="620" as="geometry" />
        </mxCell>
        <mxCell id="Y00WJjXvsSGyCvDDhoFY-22" value="Componentes" style="text;html=1;strokeColor=none;fillColor=none;align=center;verticalAlign=middle;whiteSpace=wrap;rounded=0;fontStyle=1;fontSize=14;" vertex="1" parent="Y00WJjXvsSGyCvDDhoFY-1">
          <mxGeometry x="100" y="960" width="60" height="30" as="geometry" />
        </mxCell>
        <mxCell id="Y00WJjXvsSGyCvDDhoFY-23" style="edgeStyle=orthogonalEdgeStyle;rounded=0;orthogonalLoop=1;jettySize=auto;html=1;" edge="1" parent="Y00WJjXvsSGyCvDDhoFY-1" target="Y00WJjXvsSGyCvDDhoFY-27">
          <mxGeometry relative="1" as="geometry">
            <mxPoint x="193" y="1230" as="sourcePoint" />
          </mxGeometry>
        </mxCell>
        <mxCell id="Y00WJjXvsSGyCvDDhoFY-24" value="Demo-API" style="shape=image;verticalLabelPosition=bottom;verticalAlign=top;imageAspect=0;aspect=fixed;image=data:image/svg+xml,PHN2ZyB4bWxucz0iaHR0cDovL3d3dy53My5vcmcvMjAwMC9zdmciIGZpbGw9Im5vbmUiIHZpZXdCb3g9IjAgMCA0MyAzOSIgaGVpZ2h0PSIzOSIgd2lkdGg9IjQzIj4mI3hhOzxwYXRoIGZpbGw9IiNGMkYyRjIiIGQ9Ik0zNS44MzIyIDM2SDMuMTcwOTlDMS40MjA2IDM2IDAgMzQuNTMzMiAwIDMyLjcyNThWMy40MTUwMUMwIDEuNTI5MDYgMS40ODA4NSAxLjQzMDUxZS0wNiAzLjMwNzM0IDEuNDMwNTFlLTA2SDM1LjY5MjdDMzcuNTE5MSAxLjQzMDUxZS0wNiAzOSAxLjUyOTA2IDM5IDMuNDE1MDFWMzIuNzI1OEMzOS4wMDMyIDM0LjUzNjQgMzcuNTgyNiAzNiAzNS44MzIyIDM2WiIvPiYjeGE7PHBhdGggZmlsbD0iIzQ0NzJDNCIgZD0iTTAgMkMwIDAuODk1NDMgMC44OTU0MzEgMCAyIDBIMzdDMzguMTA0NiAwIDM5IDAuODk1NDMxIDM5IDJWNkgwVjJaIi8+JiN4YTs8Y2lyY2xlIGZpbGw9IiNGRUU3OUEiIHI9IjEiIGN5PSIzIiBjeD0iNCIvPiYjeGE7PGNpcmNsZSBmaWxsPSIjQzAwMDAwIiByPSIxIiBjeT0iMyIgY3g9IjExIi8+JiN4YTs8Y2lyY2xlIGZpbGw9IiM5MkQwNTAiIHI9IjEiIGN5PSIzIiBjeD0iNyIvPiYjeGE7PHBhdGggZmlsbD0iIzQ0NzJDNCIgZD0iTTIgMjJIMTdWMjBIMlYyMloiLz4mI3hhOzxwYXRoIGZpbGw9IiM0NDcyQzQiIGQ9Ik0yIDI4SDE3VjI2SDJWMjhaIi8+JiN4YTs8cGF0aCBmaWxsPSIjNDQ3MkM0IiBkPSJNMiAyNUgxN1YyM0gyVjI1WiIvPiYjeGE7PHBhdGggZmlsbD0iIzQ0NzJDNCIgZD0iTTIgMzFIMTJWMjlIMlYzMVoiLz4mI3hhOzxwYXRoIGZpbGw9IiM0NDcyQzQiIGQ9Ik0zMi4zMDY3IDE2LjE3MzdDMzIuNzk4IDE2LjE4OTQgMzMuMjA1IDE2LjU1OTggMzMuMjY2OCAxNy4wNDc1TDMzLjM1NTggMTcuNzQ5OUMzNC4yNTgzIDE4LjAxMTIgMzUuMTA4OSAxOC4zOTU3IDM1Ljg4NzkgMTguODg0MUwzNi45MzgyIDE4LjI5MDFDMzcuMzY3NiAxOC4wNDcyIDM3LjkwOTkgMTguMTUzOCAzOC4yMTU1IDE4LjU0MUwzOS45NDg0IDIwLjczNjdDNDAuMjU2MSAyMS4xMjY3IDQwLjIzMSAyMS42ODM0IDM5Ljg4OTMgMjIuMDQ0TDM5LjM3ODEgMjIuNTgzN0MzOS43Mjk5IDIzLjIyNTYgNDAuMDEzNyAyMy45MTAxIDQwLjIxOTggMjQuNjI3OEw0MC44OTMxIDI0LjYyNkM0MS40MzU5IDI0LjYyNDYgNDEuODgwNyAyNS4wNTY0IDQxLjg5NTQgMjUuNTk5TDQxLjk3MjEgMjguNDM4N0M0MS45ODU4IDI4Ljk0NDYgNDEuNjE5NCAyOS4zODA5IDQxLjExODggMjkuNDU1TDQwLjM3ODMgMjkuNTY0NUM0MC4xNDE0IDMwLjY0OTQgMzkuNzI5MiAzMS42NjkyIDM5LjE3MjcgMzIuNTkyNUwzOS40NTE2IDMzLjAzMzVDMzkuNzA1NSAzMy40MzUgMzkuNjQxOCAzMy45NTk3IDM5LjI5OTMgMzQuMjg4OUwzNy40NTk0IDM2LjA1NzFDMzcuMTI2OCAzNi4zNzY4IDM2LjYxODUgMzYuNDI3NCAzNi4yMjk0IDM2LjE3OTVMMzUuODY2OSAzNS45NDg3QzM0LjkyODggMzYuNTMzNSAzMy44ODcgMzYuOTY4MiAzMi43NzUgMzcuMjE4OEwzMi43MjQ1IDM3LjYwOUMzMi42NjE4IDM4LjA5MzMgMzIuMjU4NSAzOC40NjE1IDMxLjc3MDUgMzguNDc5OUwyOC44Mjg1IDM4LjU5MDlDMjguMzE5OSAzOC42MSAyNy44NzgxIDM4LjI0NDIgMjcuODAyIDM3Ljc0MUwyNy42OTgxIDM3LjA1MzRDMjYuNTUwNCAzNi43MTM5IDI1LjQ4NzcgMzYuMTc0OSAyNC41NTA3IDM1LjQ3NjNMMjMuNzc3MSAzNS44NjkyQzIzLjM3MjggMzYuMDc0NiAyMi44ODA4IDM1Ljk4MjEgMjIuNTc4NiAzNS42NDRMMjAuNjUyMyAzMy40ODgyQzIwLjI5OTUgMzMuMDkzNCAyMC4zMTU2IDMyLjQ5MiAyMC42ODkgMzIuMTE2NkwyMS4zNDY1IDMxLjQ1NTZDMjEuMDM2NCAzMC43NTA4IDIwLjgwNDkgMzAuMDAzNSAyMC42NjI5IDI5LjIyNDdMMTkuOTk3MiAyOS4xNjg1QzE5LjQ2MjMgMjkuMTIzNCAxOS4wNTg0IDI4LjY2MzkgMTkuMDgyMyAyOC4xMjc2TDE5LjIwNDMgMjUuMzgxN0MxOS4yMjU1IDI0LjkwNDkgMTkuNTgwNyAyNC41MDk2IDIwLjA1MjUgMjQuNDM3NkwyMC45OTE0IDI0LjI5NDNDMjEuMjQ3NSAyMy41MDc2IDIxLjU5ODEgMjIuNzYzMyAyMi4wMjk5IDIyLjA3NDhMMjEuNjU0MSAyMS42OTA5QzIxLjI2NTUgMjEuMjkzOSAyMS4yNzUgMjAuNjU2MiAyMS42NzUzIDIwLjI3MDlMMjMuOTAzOSAxOC4xMjU4QzI0LjI2NDMgMTcuNzc5IDI0LjgyNTYgMTcuNzUxNyAyNS4yMTc5IDE4LjA2MjFMMjUuODE4NyAxOC41Mzc0QzI2LjYxMzcgMTguMTEyMiAyNy40NzI4IDE3Ljc5MDYgMjguMzc3OSAxNy41OTA5TDI4LjUwMzIgMTYuOTA0M0MyOC41OTIxIDE2LjQxNzIgMjkuMDI0MSAxNi4wNjg1IDI5LjUxOSAxNi4wODQ0TDMyLjMwNjcgMTYuMTczN1pNMzAuNjQyIDMzLjIzOEMzMy45NzM5IDMzLjIxNTUgMzYuNjU2NyAzMC40OTYyIDM2LjYzNDIgMjcuMTY0M0MzNi42MTE2IDIzLjgzMjQgMzMuODkyNCAyMS4xNDk2IDMwLjU2MDUgMjEuMTcyMUMyNy4yMjg2IDIxLjE5NDYgMjQuNTQ1OCAyMy45MTM5IDI0LjU2ODMgMjcuMjQ1OEMyNC41OTA4IDMwLjU3NzcgMjcuMzEwMSAzMy4yNjA1IDMwLjY0MiAzMy4yMzhaIiBjbGlwLXJ1bGU9ImV2ZW5vZGQiIGZpbGwtcnVsZT0iZXZlbm9kZCIvPiYjeGE7PHBhdGggZmlsbD0iI0FGQUJBQiIgZD0iTTMuNDg2MTUgMTZIMi4yMjA1Mkw0LjUyNDg2IDkuNDU0NTRINS45ODg2M0w4LjI5NjE2IDE2SDcuMDMwNTRMNS4yODIzMSAxMC43OTY5SDUuMjMxMThMMy40ODYxNSAxNlpNMy41Mjc3IDEzLjQzMzZINi45Nzk0VjE0LjM4NkgzLjUyNzdWMTMuNDMzNloiLz4mI3hhOzxwYXRoIGZpbGw9IiNBRkFCQUIiIGQ9Ik05LjE1ODI5IDE2VjkuNDU0NTRIMTEuNjEyOEMxMi4xMTU3IDkuNDU0NTQgMTIuNTM3NiA5LjU0ODI5IDEyLjg3ODUgOS43MzU3OUMxMy4yMjE1IDkuOTIzMjkgMTMuNDgwNCAxMC4xODExIDEzLjY1NTEgMTAuNTA5MkMxMy44MzE5IDEwLjgzNTIgMTMuOTIwNCAxMS4yMDYgMTMuOTIwNCAxMS42MjE0QzEzLjkyMDQgMTIuMDQxMiAxMy44MzE5IDEyLjQxNDEgMTMuNjU1MSAxMi43NDAxQzEzLjQ3ODIgMTMuMDY2IDEzLjIxNzIgMTMuMzIyOCAxMi44NzIxIDEzLjUxMDNDMTIuNTI2OSAxMy42OTU3IDEyLjEwMTggMTMuNzg4NCAxMS41OTY5IDEzLjc4ODRIOS45NzAwOFYxMi44MTM2SDExLjQzNzFDMTEuNzMxMSAxMi44MTM2IDExLjk3MTkgMTIuNzYyNCAxMi4xNTk0IDEyLjY2MDJDMTIuMzQ2OSAxMi41NTc5IDEyLjQ4NTQgMTIuNDE3MyAxMi41NzQ4IDEyLjIzODNDMTIuNjY2NSAxMi4wNTkzIDEyLjcxMjMgMTEuODUzNyAxMi43MTIzIDExLjYyMTRDMTIuNzEyMyAxMS4zODkyIDEyLjY2NjUgMTEuMTg0NyAxMi41NzQ4IDExLjAwNzhDMTIuNDg1NCAxMC44MzEgMTIuMzQ1OCAxMC42OTM1IDEyLjE1NjIgMTAuNTk1NUMxMS45Njg3IDEwLjQ5NTQgMTEuNzI2OCAxMC40NDUzIDExLjQzMDcgMTAuNDQ1M0gxMC4zNDRWMTZIOS4xNTgyOVoiLz4mI3hhOzxwYXRoIGZpbGw9IiNBRkFCQUIiIGQ9Ik0xNi4xMzYgOS40NTQ1NFYxNkgxNC45NTAzVjkuNDU0NTRIMTYuMTM2WiIvPiYjeGE7PC9zdmc+" vertex="1" parent="Y00WJjXvsSGyCvDDhoFY-1">
          <mxGeometry x="160" y="1140" width="66" height="59.86" as="geometry" />
        </mxCell>
        <mxCell id="Y00WJjXvsSGyCvDDhoFY-25" value="Db&#xa;H2" style="shape=image;verticalLabelPosition=bottom;verticalAlign=top;imageAspect=0;aspect=fixed;image=data:image/svg+xml,PHN2ZyB4bWxucz0iaHR0cDovL3d3dy53My5vcmcvMjAwMC9zdmciIGZpbGw9Im5vbmUiIHZpZXdCb3g9IjAgMCAzNSA0MSIgaGVpZ2h0PSI0MSIgd2lkdGg9IjM1Ij4mI3hhOzxlbGxpcHNlIGZpbGw9IiM1QjlCRDQiIHJ5PSI0LjI1NDcyIiByeD0iMTcuMDE4OSIgY3k9IjQuMjU0NzIiIGN4PSIxNy4wMTg5Ii8+JiN4YTs8cGF0aCBmaWxsPSIjNUI5QkQ0IiBkPSJNMzMuMjY0MiA3LjczNTg2QzIxLjI3MzYgMTEuNjUyMiAxMi43NjQyIDExLjI2MDYgMC43NzM1OSA3LjczNTg2VjE1Ljk2MDJDMTEuMjE3IDIwLjY1OTggMjMuNTk0MyAyMC4yNjgyIDMzLjI2NDIgMTUuOTYwMlY3LjczNTg2WiIvPiYjeGE7PHBhdGggZmlsbD0iIzVCOUJENCIgZD0iTTMzLjI2NDIgMTguNTY2QzIxLjI3MzYgMjIuNDgyNCAxMi43NjQyIDIyLjA5MDggMC43NzM1OSAxOC41NjZWMjYuNzkwNEMxMS4yMTcgMzEuNDkgMjMuNTk0MyAzMS4wOTg0IDMzLjI2NDIgMjYuNzkwNFYxOC41NjZaIi8+JiN4YTs8cGF0aCBmaWxsPSIjNUI5QkQ0IiBkPSJNMzMuMjY0MiAyOS4zOTYyQzIxLjI3MzYgMzMuMzEyNiAxMi43NjQyIDMyLjkyMDkgMC43NzM1OSAyOS4zOTYyVjM3LjYyMDVDMTEuMjE3IDQyLjMyMDIgMjMuNTk0MyA0MS45Mjg1IDMzLjI2NDIgMzcuNjIwNVYyOS4zOTYyWiIvPiYjeGE7PGNpcmNsZSBmaWxsPSIjRkVFNzlBIiByPSIxLjU0NzE3IiBjeT0iMTMuMTUwOSIgY3g9IjMwLjE2OTgiLz4mI3hhOzxjaXJjbGUgZmlsbD0iI0ZFRTc5QSIgcj0iMS41NDcxNyIgY3k9IjIzLjk4MTEiIGN4PSIzMC4xNjk4Ii8+JiN4YTs8Y2lyY2xlIGZpbGw9IiNGRUU3OUEiIHI9IjEuNTQ3MTciIGN5PSIzNC44MTEzIiBjeD0iMzAuMTY5OCIvPiYjeGE7PC9zdmc+" vertex="1" parent="Y00WJjXvsSGyCvDDhoFY-1">
          <mxGeometry x="650" y="1071.28" width="66" height="77.31" as="geometry" />
        </mxCell>
        <mxCell id="Y00WJjXvsSGyCvDDhoFY-26" style="edgeStyle=orthogonalEdgeStyle;rounded=0;orthogonalLoop=1;jettySize=auto;html=1;entryX=0;entryY=0.5;entryDx=0;entryDy=0;" edge="1" parent="Y00WJjXvsSGyCvDDhoFY-1" source="Y00WJjXvsSGyCvDDhoFY-27" target="Y00WJjXvsSGyCvDDhoFY-29">
          <mxGeometry relative="1" as="geometry" />
        </mxCell>
        <mxCell id="Y00WJjXvsSGyCvDDhoFY-27" value="Controller" style="shape=image;verticalLabelPosition=bottom;verticalAlign=top;imageAspect=0;aspect=fixed;image=data:image/svg+xml,PHN2ZyB4bWxucz0iaHR0cDovL3d3dy53My5vcmcvMjAwMC9zdmciIGZpbGw9Im5vbmUiIHZpZXdCb3g9IjAgMCA1NiA1MiIgaGVpZ2h0PSI1MiIgd2lkdGg9IjU2Ij4mI3hhOzxwYXRoIGZpbGw9IiM0NDcyQzQiIGQ9Ik00My4xOTM5IDcuNDkxMzVDNDMuNjM4NyA3LjcwMDUgNDMuODY1NiA4LjIwMTkxIDQzLjcyOSA4LjY3NDA5TDQzLjM2NSA5LjkzMjkxQzQ0LjM2OTggMTAuNzYxMSA0NS4yNDA4IDExLjcxNzQgNDUuOTYzNyAxMi43NjY2TDQ3Ljk1NTEgMTIuNTUyM0M0OC40NDU1IDEyLjQ5OTUgNDguOTAxMiAxMi44MTIzIDQ5LjAyODMgMTMuMjg4OUw1MC4xOTgzIDE3LjY3NjRDNTAuMzI2MyAxOC4xNTYzIDUwLjA4MjYgMTguNjU3NSA0OS42MjYgMTguODUzMkw0OC4zNzIzIDE5LjM5MDVDNDguNDY3NCAyMC40MDAzIDQ4LjQ1MjUgMjEuNDI3MiA0OC4zMjA2IDIyLjQ1MzVMNDkuNTI0MiAyMi45NjkzQzUwLjAyMzEgMjMuMTgzMSA1MC4yNjA0IDIzLjc1NTkgNTAuMDU4OCAyNC4yNTk4TDQ4LjMyOTkgMjguNTgyMUM0OC4xNDE5IDI5LjA1MiA0Ny42MzI3IDI5LjMwNzQgNDcuMTQzNyAyOS4xNzdMNDUuODEwOSAyOC44MjE1QzQ0LjkxMzYgMzAuMDcxNyA0My44MjkxIDMxLjE0MjcgNDIuNjE0IDMyLjAxMTlMNDIuNzc1NiAzMy4wMzcxQzQyLjg0OTUgMzMuNTA2MyA0Mi41ODMxIDMzLjk2MjkgNDIuMTM4MiAzNC4xMjkzTDM4LjI0NzMgMzUuNTg1MUMzNy44MTUxIDM1Ljc0NjcgMzcuMzI4NSAzNS41OTE4IDM3LjA2OTQgMzUuMjFMMzYuNTY0NiAzNC40NjYyQzM1LjA0OTkgMzQuNjk1MSAzMy40ODU3IDM0LjY3NTkgMzEuOTMzNCAzNC4zODQxTDMxLjQ4OCAzNS4xMzM0QzMxLjIzODUgMzUuNTUzMSAzMC43MjIzIDM1LjczMTMgMzAuMjY2OSAzNS41NTQ4TDI1LjgzNzIgMzMuODM3NkMyNS4zNjI3IDMzLjY1MzYgMjUuMTAyIDMzLjE0MjYgMjUuMjMxNiAzMi42NTA1TDI1LjU2NDkgMzEuMzg1MkMyNC4yOTExIDMwLjMyMjkgMjMuMjM1MSAyOS4wNTM1IDIyLjQyNjYgMjcuNjUwMkwyMC45MzA0IDI3Ljc0MzdDMjAuNDc3OCAyNy43NzIgMjAuMDYyOCAyNy40OTIxIDE5LjkxOTQgMjcuMDYxOEwxOC40NDM2IDIyLjYzNDVDMTguMjc2MSAyMi4xMzIyIDE4LjUyOTIgMjEuNTg2NCAxOS4wMjA5IDIxLjM4OThMMjAuNTU4MiAyMC43NzQ4QzIwLjU1MDggMTkuNzA3OCAyMC42NjY2IDE4LjYyOTggMjAuOTEzNyAxNy41NjA5TDE5Ljc3MDggMTYuOTQ4OEMxOS4yOTc2IDE2LjY5NTQgMTkuMTA4OSAxNi4xMTM1IDE5LjM0MzMgMTUuNjMwNkwyMS4zMDcgMTEuNTg1NUMyMS41MTU0IDExLjE1NjIgMjEuOTk4MiAxMC45MzM5IDIyLjQ1OTkgMTEuMDU0OEwyNC4wMzk1IDExLjQ2ODVDMjQuNzk3NSAxMC42MDgyIDI1LjY1MjQgOS44NTM3OSAyNi41Nzk4IDkuMjE1MDFMMjYuMTcyOSA4LjE1NzAyQzI1Ljk3MzUgNy42Mzg0OCAyNi4yMzQ5IDcuMDU2NzggMjYuNzU1MSA2Ljg2MTcxTDMxLjQ0ODUgNS4xMDE3MkMzMS45MTY4IDQuOTI2MDkgMzIuNDQyOSA1LjEyMzUzIDMyLjY4MDEgNS41NjM5NUwzMy4zNDMxIDYuNzk1MjhDMzQuNTg4MiA2LjY5MDg5IDM1Ljg1NzggNi43NTM1OCAzNy4xMTkxIDYuOTk2NjFMMzcuODM5OSA1LjkxNTRDMzguMTE0NSA1LjUwMzQxIDM4LjY0OTQgNS4zNTQ0NSAzOS4wOTc1IDUuNTY1MTVMNDMuMTkzOSA3LjQ5MTM1Wk0zMS40MDU5IDI4LjE0NzhDMzUuNjU3NCAyOS45NDkxIDQwLjU2NDIgMjcuOTYyOCA0Mi4zNjU1IDIzLjcxMTNDNDQuMTY2OCAxOS40NTk4IDQyLjE4MDUgMTQuNTUzIDM3LjkyOSAxMi43NTE3QzMzLjY3NzUgMTAuOTUwNCAyOC43NzA3IDEyLjkzNjcgMjYuOTY5NCAxNy4xODgyQzI1LjE2ODEgMjEuNDM5NyAyNy4xNTQ0IDI2LjM0NjUgMzEuNDA1OSAyOC4xNDc4WiIgY2xpcC1ydWxlPSJldmVub2RkIiBmaWxsLXJ1bGU9ImV2ZW5vZGQiLz4mI3hhOzxwYXRoIGZpbGw9IiMzQjYwQTIiIGQ9Ik0yNC40MzU2IDMwLjk3MDZDMjQuNzQ1NiAzMS4zNTE4IDI0LjczMjggMzEuOTAxOCAyNC40MDUzIDMyLjI2ODFMMjMuOTgxNiAzMi43NDIxQzI0LjM2MDcgMzMuNTU5MiAyNC42MTg1IDM0LjQxNTYgMjQuNzU2NSAzNS4yODUxTDI1LjgxNDkgMzUuNjY0M0MyNi4yNzczIDM1LjgzIDI2LjU1MDkgMzYuMzA3IDI2LjQ2MDUgMzYuNzg5OEwyNS45ODI2IDM5LjM0MTJDMjUuODkwNyAzOS44MzE3IDI1LjQ1MTMgNDAuMTc5NCAyNC45NTI5IDQwLjE1NkwyNC4yODYgNDAuMTI0OEMyNC4wNDQ5IDQwLjc4MDYgMjMuNzMwMyA0MS40MTM5IDIzLjM0MzEgNDIuMDExNkwyMy43NDE0IDQyLjQ2ODNDMjQuMDk4MSA0Mi44NzczIDI0LjA2MzUgNDMuNDk2MiAyMy42NjMzIDQzLjg2MjlMMjEuNzMxMiA0NS42MzMyQzIxLjM1NzggNDUuOTc1MyAyMC43ODc3IDQ1Ljk4NDMgMjAuNDAzNyA0NS42NTQyTDE5Ljg4NzUgNDUuMjEwNEMxOC45NTczIDQ1LjcxNjQgMTcuOTYzOCA0Ni4wNTQ5IDE2Ljk0OTEgNDYuMjI4NkwxNi44MTg3IDQ2LjY2NjJDMTYuNjgyNCA0Ny4xMjM1IDE2LjI0MTkgNDcuNDIwOCAxNS43NjY4IDQ3LjM3NjJMMTMuNDA2NyA0Ny4xNTQ0QzEyLjk0OTUgNDcuMTExNCAxMi41ODAzIDQ2Ljc2MjUgMTIuNTExNSA0Ni4zMDg1TDEyLjQ1NDIgNDUuOTMwMUMxMS40NDM0IDQ1LjYxNTggMTAuNDc1NiA0NS4xMzI2IDkuNTk2MTYgNDQuNDgzNkw5LjMxNTc0IDQ0LjY2OTNDOC45MDg4IDQ0LjkzODggOC4zNjY3NSA0NC44NzUyIDguMDMzMjkgNDQuNTE4OEw2LjE1MTY5IDQyLjUwNzVDNS44MDQyNyA0Mi4xMzYxIDUuNzkwODggNDEuNTYzMiA2LjEyMDU5IDQxLjE3Nkw2LjUyNDExIDQwLjcwMjFDNi4wNDcxNyAzOS42NTg1IDUuNzY3MzcgMzguNTUxOSA1LjY4MTQyIDM3LjQzNjdMNC45MzgxNyAzNy4xMzIzQzQuNTIwMzUgMzYuOTYxMiA0LjI2OTAxIDM2LjUzMTMgNC4zMjQ4MiAzNi4wODMzTDQuNjU2OTEgMzMuNDE3M0M0LjcyMjY0IDMyLjg4OTYgNS4xODk5MyAzMi41MDU2IDUuNzIwNCAzMi41NDM1TDYuNTYyOSAzMi42MDM2QzYuODc1NTUgMzEuOTM4NiA3LjI2ODE1IDMxLjMwNCA3LjczOTgxIDMwLjcxNDZMNy4zODU1IDMwLjIyOTdDNy4wNjg2IDI5Ljc5NTkgNy4xNTA5OCAyOS4xODkzIDcuNTcyMDcgMjguODU1OEw5LjU2MDA4IDI3LjI4MTNDOS45MzQzOCAyNi45ODQ4IDEwLjQ2NiAyNi45OTQzIDEwLjgyOTUgMjcuMzA0TDExLjQ5NjggMjcuODcyNkMxMi4yMjQ0IDI3LjU2NjcgMTIuOTgwOCAyNy4zNTU3IDEzLjc0OCAyNy4yMzg1TDEzLjc4NDMgMjYuNzc2NUMxMy44MjgxIDI2LjIyMDMgMTQuMzE4NSAyNS44MDc1IDE0Ljg3NDEgMjUuODU5M0wxNy43MzcxIDI2LjEyNjJDMTguMjMyOSAyNi4xNzI0IDE4LjYxOTIgMjYuNTc2MyAxOC42NDMyIDI3LjA3MzdMMTguNjc2OSAyNy43NzM1QzE5LjQ4MjkgMjguMDgzOSAyMC4yNTQ1IDI4LjUwNTMgMjAuOTY3MiAyOS4wMzY0TDIxLjUwNjkgMjguNzE4QzIxLjkzMyAyOC40NjY2IDIyLjQ3ODcgMjguNTY0NSAyMi43OTA4IDI4Ljk0ODNMMjQuNDM1NiAzMC45NzA2Wk0xMS4xMjIyIDQwLjQ1MTRDMTMuMjMyNyA0Mi44NTEzIDE2Ljg3NzMgNDMuMDk2MSAxOS4yNjI2IDQwLjk5ODRDMjEuNjQ3OSAzOC45MDA2IDIxLjg3MDYgMzUuMjU0NiAxOS43NjAxIDMyLjg1NDhDMTcuNjQ5NiAzMC40NTQ5IDE0LjAwNSAzMC4yMTAxIDExLjYxOTcgMzIuMzA3OEM5LjIzNDM3IDM0LjQwNTYgOS4wMTE2MyAzOC4wNTE2IDExLjEyMjIgNDAuNDUxNFoiIGNsaXAtcnVsZT0iZXZlbm9kZCIgZmlsbC1ydWxlPSJldmVub2RkIi8+JiN4YTs8L3N2Zz4=" vertex="1" parent="Y00WJjXvsSGyCvDDhoFY-1">
          <mxGeometry x="165" y="1270" width="56" height="52" as="geometry" />
        </mxCell>
        <mxCell id="Y00WJjXvsSGyCvDDhoFY-28" style="edgeStyle=orthogonalEdgeStyle;rounded=0;orthogonalLoop=1;jettySize=auto;html=1;" edge="1" parent="Y00WJjXvsSGyCvDDhoFY-1" source="Y00WJjXvsSGyCvDDhoFY-29" target="Y00WJjXvsSGyCvDDhoFY-33">
          <mxGeometry relative="1" as="geometry" />
        </mxCell>
        <mxCell id="Y00WJjXvsSGyCvDDhoFY-29" value="Service" style="shape=image;verticalLabelPosition=bottom;verticalAlign=top;imageAspect=0;aspect=fixed;image=data:image/svg+xml,PHN2ZyB4bWxucz0iaHR0cDovL3d3dy53My5vcmcvMjAwMC9zdmciIGZpbGw9Im5vbmUiIHZpZXdCb3g9IjAgMCA1NiA1MiIgaGVpZ2h0PSI1MiIgd2lkdGg9IjU2Ij4mI3hhOzxwYXRoIGZpbGw9IiM0NDcyQzQiIGQ9Ik00My4xOTM5IDcuNDkxMzVDNDMuNjM4NyA3LjcwMDUgNDMuODY1NiA4LjIwMTkxIDQzLjcyOSA4LjY3NDA5TDQzLjM2NSA5LjkzMjkxQzQ0LjM2OTggMTAuNzYxMSA0NS4yNDA4IDExLjcxNzQgNDUuOTYzNyAxMi43NjY2TDQ3Ljk1NTEgMTIuNTUyM0M0OC40NDU1IDEyLjQ5OTUgNDguOTAxMiAxMi44MTIzIDQ5LjAyODMgMTMuMjg4OUw1MC4xOTgzIDE3LjY3NjRDNTAuMzI2MyAxOC4xNTYzIDUwLjA4MjYgMTguNjU3NSA0OS42MjYgMTguODUzMkw0OC4zNzIzIDE5LjM5MDVDNDguNDY3NCAyMC40MDAzIDQ4LjQ1MjUgMjEuNDI3MiA0OC4zMjA2IDIyLjQ1MzVMNDkuNTI0MiAyMi45NjkzQzUwLjAyMzEgMjMuMTgzMSA1MC4yNjA0IDIzLjc1NTkgNTAuMDU4OCAyNC4yNTk4TDQ4LjMyOTkgMjguNTgyMUM0OC4xNDE5IDI5LjA1MiA0Ny42MzI3IDI5LjMwNzQgNDcuMTQzNyAyOS4xNzdMNDUuODEwOSAyOC44MjE1QzQ0LjkxMzYgMzAuMDcxNyA0My44MjkxIDMxLjE0MjcgNDIuNjE0IDMyLjAxMTlMNDIuNzc1NiAzMy4wMzcxQzQyLjg0OTUgMzMuNTA2MyA0Mi41ODMxIDMzLjk2MjkgNDIuMTM4MiAzNC4xMjkzTDM4LjI0NzMgMzUuNTg1MUMzNy44MTUxIDM1Ljc0NjcgMzcuMzI4NSAzNS41OTE4IDM3LjA2OTQgMzUuMjFMMzYuNTY0NiAzNC40NjYyQzM1LjA0OTkgMzQuNjk1MSAzMy40ODU3IDM0LjY3NTkgMzEuOTMzNCAzNC4zODQxTDMxLjQ4OCAzNS4xMzM0QzMxLjIzODUgMzUuNTUzMSAzMC43MjIzIDM1LjczMTMgMzAuMjY2OSAzNS41NTQ4TDI1LjgzNzIgMzMuODM3NkMyNS4zNjI3IDMzLjY1MzYgMjUuMTAyIDMzLjE0MjYgMjUuMjMxNiAzMi42NTA1TDI1LjU2NDkgMzEuMzg1MkMyNC4yOTExIDMwLjMyMjkgMjMuMjM1MSAyOS4wNTM1IDIyLjQyNjYgMjcuNjUwMkwyMC45MzA0IDI3Ljc0MzdDMjAuNDc3OCAyNy43NzIgMjAuMDYyOCAyNy40OTIxIDE5LjkxOTQgMjcuMDYxOEwxOC40NDM2IDIyLjYzNDVDMTguMjc2MSAyMi4xMzIyIDE4LjUyOTIgMjEuNTg2NCAxOS4wMjA5IDIxLjM4OThMMjAuNTU4MiAyMC43NzQ4QzIwLjU1MDggMTkuNzA3OCAyMC42NjY2IDE4LjYyOTggMjAuOTEzNyAxNy41NjA5TDE5Ljc3MDggMTYuOTQ4OEMxOS4yOTc2IDE2LjY5NTQgMTkuMTA4OSAxNi4xMTM1IDE5LjM0MzMgMTUuNjMwNkwyMS4zMDcgMTEuNTg1NUMyMS41MTU0IDExLjE1NjIgMjEuOTk4MiAxMC45MzM5IDIyLjQ1OTkgMTEuMDU0OEwyNC4wMzk1IDExLjQ2ODVDMjQuNzk3NSAxMC42MDgyIDI1LjY1MjQgOS44NTM3OSAyNi41Nzk4IDkuMjE1MDFMMjYuMTcyOSA4LjE1NzAyQzI1Ljk3MzUgNy42Mzg0OCAyNi4yMzQ5IDcuMDU2NzggMjYuNzU1MSA2Ljg2MTcxTDMxLjQ0ODUgNS4xMDE3MkMzMS45MTY4IDQuOTI2MDkgMzIuNDQyOSA1LjEyMzUzIDMyLjY4MDEgNS41NjM5NUwzMy4zNDMxIDYuNzk1MjhDMzQuNTg4MiA2LjY5MDg5IDM1Ljg1NzggNi43NTM1OCAzNy4xMTkxIDYuOTk2NjFMMzcuODM5OSA1LjkxNTRDMzguMTE0NSA1LjUwMzQxIDM4LjY0OTQgNS4zNTQ0NSAzOS4wOTc1IDUuNTY1MTVMNDMuMTkzOSA3LjQ5MTM1Wk0zMS40MDU5IDI4LjE0NzhDMzUuNjU3NCAyOS45NDkxIDQwLjU2NDIgMjcuOTYyOCA0Mi4zNjU1IDIzLjcxMTNDNDQuMTY2OCAxOS40NTk4IDQyLjE4MDUgMTQuNTUzIDM3LjkyOSAxMi43NTE3QzMzLjY3NzUgMTAuOTUwNCAyOC43NzA3IDEyLjkzNjcgMjYuOTY5NCAxNy4xODgyQzI1LjE2ODEgMjEuNDM5NyAyNy4xNTQ0IDI2LjM0NjUgMzEuNDA1OSAyOC4xNDc4WiIgY2xpcC1ydWxlPSJldmVub2RkIiBmaWxsLXJ1bGU9ImV2ZW5vZGQiLz4mI3hhOzxwYXRoIGZpbGw9IiMzQjYwQTIiIGQ9Ik0yNC40MzU2IDMwLjk3MDZDMjQuNzQ1NiAzMS4zNTE4IDI0LjczMjggMzEuOTAxOCAyNC40MDUzIDMyLjI2ODFMMjMuOTgxNiAzMi43NDIxQzI0LjM2MDcgMzMuNTU5MiAyNC42MTg1IDM0LjQxNTYgMjQuNzU2NSAzNS4yODUxTDI1LjgxNDkgMzUuNjY0M0MyNi4yNzczIDM1LjgzIDI2LjU1MDkgMzYuMzA3IDI2LjQ2MDUgMzYuNzg5OEwyNS45ODI2IDM5LjM0MTJDMjUuODkwNyAzOS44MzE3IDI1LjQ1MTMgNDAuMTc5NCAyNC45NTI5IDQwLjE1NkwyNC4yODYgNDAuMTI0OEMyNC4wNDQ5IDQwLjc4MDYgMjMuNzMwMyA0MS40MTM5IDIzLjM0MzEgNDIuMDExNkwyMy43NDE0IDQyLjQ2ODNDMjQuMDk4MSA0Mi44NzczIDI0LjA2MzUgNDMuNDk2MiAyMy42NjMzIDQzLjg2MjlMMjEuNzMxMiA0NS42MzMyQzIxLjM1NzggNDUuOTc1MyAyMC43ODc3IDQ1Ljk4NDMgMjAuNDAzNyA0NS42NTQyTDE5Ljg4NzUgNDUuMjEwNEMxOC45NTczIDQ1LjcxNjQgMTcuOTYzOCA0Ni4wNTQ5IDE2Ljk0OTEgNDYuMjI4NkwxNi44MTg3IDQ2LjY2NjJDMTYuNjgyNCA0Ny4xMjM1IDE2LjI0MTkgNDcuNDIwOCAxNS43NjY4IDQ3LjM3NjJMMTMuNDA2NyA0Ny4xNTQ0QzEyLjk0OTUgNDcuMTExNCAxMi41ODAzIDQ2Ljc2MjUgMTIuNTExNSA0Ni4zMDg1TDEyLjQ1NDIgNDUuOTMwMUMxMS40NDM0IDQ1LjYxNTggMTAuNDc1NiA0NS4xMzI2IDkuNTk2MTYgNDQuNDgzNkw5LjMxNTc0IDQ0LjY2OTNDOC45MDg4IDQ0LjkzODggOC4zNjY3NSA0NC44NzUyIDguMDMzMjkgNDQuNTE4OEw2LjE1MTY5IDQyLjUwNzVDNS44MDQyNyA0Mi4xMzYxIDUuNzkwODggNDEuNTYzMiA2LjEyMDU5IDQxLjE3Nkw2LjUyNDExIDQwLjcwMjFDNi4wNDcxNyAzOS42NTg1IDUuNzY3MzcgMzguNTUxOSA1LjY4MTQyIDM3LjQzNjdMNC45MzgxNyAzNy4xMzIzQzQuNTIwMzUgMzYuOTYxMiA0LjI2OTAxIDM2LjUzMTMgNC4zMjQ4MiAzNi4wODMzTDQuNjU2OTEgMzMuNDE3M0M0LjcyMjY0IDMyLjg4OTYgNS4xODk5MyAzMi41MDU2IDUuNzIwNCAzMi41NDM1TDYuNTYyOSAzMi42MDM2QzYuODc1NTUgMzEuOTM4NiA3LjI2ODE1IDMxLjMwNCA3LjczOTgxIDMwLjcxNDZMNy4zODU1IDMwLjIyOTdDNy4wNjg2IDI5Ljc5NTkgNy4xNTA5OCAyOS4xODkzIDcuNTcyMDcgMjguODU1OEw5LjU2MDA4IDI3LjI4MTNDOS45MzQzOCAyNi45ODQ4IDEwLjQ2NiAyNi45OTQzIDEwLjgyOTUgMjcuMzA0TDExLjQ5NjggMjcuODcyNkMxMi4yMjQ0IDI3LjU2NjcgMTIuOTgwOCAyNy4zNTU3IDEzLjc0OCAyNy4yMzg1TDEzLjc4NDMgMjYuNzc2NUMxMy44MjgxIDI2LjIyMDMgMTQuMzE4NSAyNS44MDc1IDE0Ljg3NDEgMjUuODU5M0wxNy43MzcxIDI2LjEyNjJDMTguMjMyOSAyNi4xNzI0IDE4LjYxOTIgMjYuNTc2MyAxOC42NDMyIDI3LjA3MzdMMTguNjc2OSAyNy43NzM1QzE5LjQ4MjkgMjguMDgzOSAyMC4yNTQ1IDI4LjUwNTMgMjAuOTY3MiAyOS4wMzY0TDIxLjUwNjkgMjguNzE4QzIxLjkzMyAyOC40NjY2IDIyLjQ3ODcgMjguNTY0NSAyMi43OTA4IDI4Ljk0ODNMMjQuNDM1NiAzMC45NzA2Wk0xMS4xMjIyIDQwLjQ1MTRDMTMuMjMyNyA0Mi44NTEzIDE2Ljg3NzMgNDMuMDk2MSAxOS4yNjI2IDQwLjk5ODRDMjEuNjQ3OSAzOC45MDA2IDIxLjg3MDYgMzUuMjU0NiAxOS43NjAxIDMyLjg1NDhDMTcuNjQ5NiAzMC40NTQ5IDE0LjAwNSAzMC4yMTAxIDExLjYxOTcgMzIuMzA3OEM5LjIzNDM3IDM0LjQwNTYgOS4wMTE2MyAzOC4wNTE2IDExLjEyMjIgNDAuNDUxNFoiIGNsaXAtcnVsZT0iZXZlbm9kZCIgZmlsbC1ydWxlPSJldmVub2RkIi8+JiN4YTs8L3N2Zz4=" vertex="1" parent="Y00WJjXvsSGyCvDDhoFY-1">
          <mxGeometry x="290" y="1270" width="56" height="52" as="geometry" />
        </mxCell>
        <mxCell id="Y00WJjXvsSGyCvDDhoFY-30" value="&lt;h3 style=&quot;margin: 13px 0px 3px; max-width: 590px; font-size: 20px; line-height: 28px; color: rgb(66, 66, 66); font-family: &amp;quot;Segoe Sans&amp;quot;, &amp;quot;Segoe UI&amp;quot;, &amp;quot;Segoe UI Web (West European)&amp;quot;, -apple-system, BlinkMacSystemFont, Roboto, &amp;quot;Helvetica Neue&amp;quot;, sans-serif; background-color: rgb(250, 250, 250);&quot;&gt;🔄&amp;nbsp;Sequência Representada no Diagrama&lt;/h3&gt;&lt;h3 style=&quot;margin: 13px 0px 3px; max-width: 590px; line-height: 28px; color: rgb(66, 66, 66); font-family: &amp;quot;Segoe Sans&amp;quot;, &amp;quot;Segoe UI&amp;quot;, &amp;quot;Segoe UI Web (West European)&amp;quot;, -apple-system, BlinkMacSystemFont, Roboto, &amp;quot;Helvetica Neue&amp;quot;, sans-serif; background-color: rgb(250, 250, 250); font-size: 15px;&quot;&gt;&lt;ol style=&quot;margin: 4px 0px; padding-inline: 24px 0px; box-sizing: border-box; font-size: 16px; font-weight: 400;&quot;&gt;&lt;li style=&quot;padding-inline-start: 4px;&quot;&gt;&lt;p style=&quot;margin: 0px 0px 8px; overflow-wrap: break-word;&quot;&gt;Demo-API&lt;/p&gt;&lt;ul style=&quot;list-style: disc; margin: -8px 0px 0px; padding: 0px 0px 8px; padding-inline: 24px 0px; box-sizing: border-box;&quot;&gt;&lt;li style=&quot;padding-inline-start: 4px;&quot;&gt;Representa o ponto de entrada da aplicação (ex: Swagger, cliente HTTP, frontend).&lt;/li&gt;&lt;li style=&quot;padding-inline-start: 4px;&quot;&gt;Inicia o fluxo de requisição.&lt;/li&gt;&lt;/ul&gt;&lt;/li&gt;&lt;li style=&quot;padding-inline-start: 4px;&quot;&gt;&lt;p style=&quot;margin: 0px 0px 8px; overflow-wrap: break-word;&quot;&gt;&lt;span style=&quot;font-weight: 600;&quot;&gt;Controller&lt;/span&gt;&lt;/p&gt;&lt;ul style=&quot;list-style: disc; margin: -8px 0px 0px; padding: 0px 0px 8px; padding-inline: 24px 0px; box-sizing: border-box;&quot;&gt;&lt;li style=&quot;padding-inline-start: 4px;&quot;&gt;Recebe a requisição HTTP.&lt;/li&gt;&lt;li style=&quot;padding-inline-start: 4px;&quot;&gt;Interpreta os dados e chama o serviço correspondente.&lt;/li&gt;&lt;/ul&gt;&lt;/li&gt;&lt;li style=&quot;padding-inline-start: 4px;&quot;&gt;&lt;p style=&quot;margin: 0px 0px 8px; overflow-wrap: break-word;&quot;&gt;&lt;span style=&quot;font-weight: 600;&quot;&gt;Service&lt;/span&gt;&lt;/p&gt;&lt;ul style=&quot;list-style: disc; margin: -8px 0px 0px; padding: 0px 0px 8px; padding-inline: 24px 0px; box-sizing: border-box;&quot;&gt;&lt;li style=&quot;padding-inline-start: 4px;&quot;&gt;Aplica a lógica de negócio.&lt;/li&gt;&lt;li style=&quot;padding-inline-start: 4px;&quot;&gt;Valida dados e decide o que fazer com eles.&lt;/li&gt;&lt;/ul&gt;&lt;/li&gt;&lt;li style=&quot;padding-inline-start: 4px;&quot;&gt;&lt;p style=&quot;margin: 0px 0px 8px; overflow-wrap: break-word;&quot;&gt;&lt;span style=&quot;font-weight: 600;&quot;&gt;Repository&lt;/span&gt;&lt;/p&gt;&lt;ul style=&quot;list-style: disc; margin: -8px 0px 0px; padding: 0px 0px 8px; padding-inline: 24px 0px; box-sizing: border-box;&quot;&gt;&lt;li style=&quot;padding-inline-start: 4px;&quot;&gt;Interage com o banco de dados.&lt;/li&gt;&lt;li style=&quot;padding-inline-start: 4px;&quot;&gt;Executa operações como salvar, buscar, deletar, contar.&lt;/li&gt;&lt;/ul&gt;&lt;/li&gt;&lt;li style=&quot;padding-inline-start: 4px;&quot;&gt;&lt;p style=&quot;margin: 0px 0px 8px; overflow-wrap: break-word;&quot;&gt;&lt;span style=&quot;font-weight: 600;&quot;&gt;Model&lt;/span&gt;&lt;/p&gt;&lt;ul style=&quot;list-style: disc; margin: -8px 0px 0px; padding: 0px 0px 8px; padding-inline: 24px 0px; box-sizing: border-box;&quot;&gt;&lt;li style=&quot;padding-inline-start: 4px;&quot;&gt;Representa a estrutura da entidade&amp;nbsp;&lt;code style=&quot;font-family: source-code-pro, Menlo, Monaco, Consolas, &amp;quot;Courier New&amp;quot;, monospace;&quot;&gt;Cliente&lt;/code&gt;.&lt;/li&gt;&lt;li style=&quot;padding-inline-start: 4px;&quot;&gt;Usado para transportar os dados entre as camadas.&lt;/li&gt;&lt;/ul&gt;&lt;/li&gt;&lt;li style=&quot;padding-inline-start: 4px;&quot;&gt;&lt;p style=&quot;margin: 0px 0px 8px; overflow-wrap: break-word;&quot;&gt;&lt;span style=&quot;font-weight: 600;&quot;&gt;Db H2&lt;/span&gt;&lt;/p&gt;&lt;ul style=&quot;list-style: disc; margin: -8px 0px 0px; padding: 0px 0px 8px; padding-inline: 24px 0px; box-sizing: border-box;&quot;&gt;&lt;li style=&quot;padding-inline-start: 4px;&quot;&gt;Banco de dados em memória.&lt;/li&gt;&lt;li style=&quot;padding-inline-start: 4px;&quot;&gt;Armazena os dados persistidos pela aplicação.&lt;/li&gt;&lt;/ul&gt;&lt;/li&gt;&lt;/ol&gt;&lt;/h3&gt;" style="text;whiteSpace=wrap;html=1;" vertex="1" parent="Y00WJjXvsSGyCvDDhoFY-1">
          <mxGeometry x="770" y="940" width="560" height="390" as="geometry" />
        </mxCell>
        <mxCell id="Y00WJjXvsSGyCvDDhoFY-31" style="edgeStyle=orthogonalEdgeStyle;rounded=0;orthogonalLoop=1;jettySize=auto;html=1;entryX=0;entryY=0.5;entryDx=0;entryDy=0;exitX=0.5;exitY=0;exitDx=0;exitDy=0;" edge="1" parent="Y00WJjXvsSGyCvDDhoFY-1" source="Y00WJjXvsSGyCvDDhoFY-37" target="Y00WJjXvsSGyCvDDhoFY-25">
          <mxGeometry relative="1" as="geometry" />
        </mxCell>
        <mxCell id="Y00WJjXvsSGyCvDDhoFY-32" style="edgeStyle=orthogonalEdgeStyle;rounded=0;orthogonalLoop=1;jettySize=auto;html=1;" edge="1" parent="Y00WJjXvsSGyCvDDhoFY-1" source="Y00WJjXvsSGyCvDDhoFY-33" target="Y00WJjXvsSGyCvDDhoFY-37">
          <mxGeometry relative="1" as="geometry" />
        </mxCell>
        <mxCell id="Y00WJjXvsSGyCvDDhoFY-33" value="Repository" style="shape=image;verticalLabelPosition=bottom;verticalAlign=top;imageAspect=0;aspect=fixed;image=data:image/svg+xml,PHN2ZyB4bWxucz0iaHR0cDovL3d3dy53My5vcmcvMjAwMC9zdmciIGZpbGw9Im5vbmUiIHZpZXdCb3g9IjAgMCA1NiA1MiIgaGVpZ2h0PSI1MiIgd2lkdGg9IjU2Ij4mI3hhOzxwYXRoIGZpbGw9IiM0NDcyQzQiIGQ9Ik00My4xOTM5IDcuNDkxMzVDNDMuNjM4NyA3LjcwMDUgNDMuODY1NiA4LjIwMTkxIDQzLjcyOSA4LjY3NDA5TDQzLjM2NSA5LjkzMjkxQzQ0LjM2OTggMTAuNzYxMSA0NS4yNDA4IDExLjcxNzQgNDUuOTYzNyAxMi43NjY2TDQ3Ljk1NTEgMTIuNTUyM0M0OC40NDU1IDEyLjQ5OTUgNDguOTAxMiAxMi44MTIzIDQ5LjAyODMgMTMuMjg4OUw1MC4xOTgzIDE3LjY3NjRDNTAuMzI2MyAxOC4xNTYzIDUwLjA4MjYgMTguNjU3NSA0OS42MjYgMTguODUzMkw0OC4zNzIzIDE5LjM5MDVDNDguNDY3NCAyMC40MDAzIDQ4LjQ1MjUgMjEuNDI3MiA0OC4zMjA2IDIyLjQ1MzVMNDkuNTI0MiAyMi45NjkzQzUwLjAyMzEgMjMuMTgzMSA1MC4yNjA0IDIzLjc1NTkgNTAuMDU4OCAyNC4yNTk4TDQ4LjMyOTkgMjguNTgyMUM0OC4xNDE5IDI5LjA1MiA0Ny42MzI3IDI5LjMwNzQgNDcuMTQzNyAyOS4xNzdMNDUuODEwOSAyOC44MjE1QzQ0LjkxMzYgMzAuMDcxNyA0My44MjkxIDMxLjE0MjcgNDIuNjE0IDMyLjAxMTlMNDIuNzc1NiAzMy4wMzcxQzQyLjg0OTUgMzMuNTA2MyA0Mi41ODMxIDMzLjk2MjkgNDIuMTM4MiAzNC4xMjkzTDM4LjI0NzMgMzUuNTg1MUMzNy44MTUxIDM1Ljc0NjcgMzcuMzI4NSAzNS41OTE4IDM3LjA2OTQgMzUuMjFMMzYuNTY0NiAzNC40NjYyQzM1LjA0OTkgMzQuNjk1MSAzMy40ODU3IDM0LjY3NTkgMzEuOTMzNCAzNC4zODQxTDMxLjQ4OCAzNS4xMzM0QzMxLjIzODUgMzUuNTUzMSAzMC43MjIzIDM1LjczMTMgMzAuMjY2OSAzNS41NTQ4TDI1LjgzNzIgMzMuODM3NkMyNS4zNjI3IDMzLjY1MzYgMjUuMTAyIDMzLjE0MjYgMjUuMjMxNiAzMi42NTA1TDI1LjU2NDkgMzEuMzg1MkMyNC4yOTExIDMwLjMyMjkgMjMuMjM1MSAyOS4wNTM1IDIyLjQyNjYgMjcuNjUwMkwyMC45MzA0IDI3Ljc0MzdDMjAuNDc3OCAyNy43NzIgMjAuMDYyOCAyNy40OTIxIDE5LjkxOTQgMjcuMDYxOEwxOC40NDM2IDIyLjYzNDVDMTguMjc2MSAyMi4xMzIyIDE4LjUyOTIgMjEuNTg2NCAxOS4wMjA5IDIxLjM4OThMMjAuNTU4MiAyMC43NzQ4QzIwLjU1MDggMTkuNzA3OCAyMC42NjY2IDE4LjYyOTggMjAuOTEzNyAxNy41NjA5TDE5Ljc3MDggMTYuOTQ4OEMxOS4yOTc2IDE2LjY5NTQgMTkuMTA4OSAxNi4xMTM1IDE5LjM0MzMgMTUuNjMwNkwyMS4zMDcgMTEuNTg1NUMyMS41MTU0IDExLjE1NjIgMjEuOTk4MiAxMC45MzM5IDIyLjQ1OTkgMTEuMDU0OEwyNC4wMzk1IDExLjQ2ODVDMjQuNzk3NSAxMC42MDgyIDI1LjY1MjQgOS44NTM3OSAyNi41Nzk4IDkuMjE1MDFMMjYuMTcyOSA4LjE1NzAyQzI1Ljk3MzUgNy42Mzg0OCAyNi4yMzQ5IDcuMDU2NzggMjYuNzU1MSA2Ljg2MTcxTDMxLjQ0ODUgNS4xMDE3MkMzMS45MTY4IDQuOTI2MDkgMzIuNDQyOSA1LjEyMzUzIDMyLjY4MDEgNS41NjM5NUwzMy4zNDMxIDYuNzk1MjhDMzQuNTg4MiA2LjY5MDg5IDM1Ljg1NzggNi43NTM1OCAzNy4xMTkxIDYuOTk2NjFMMzcuODM5OSA1LjkxNTRDMzguMTE0NSA1LjUwMzQxIDM4LjY0OTQgNS4zNTQ0NSAzOS4wOTc1IDUuNTY1MTVMNDMuMTkzOSA3LjQ5MTM1Wk0zMS40MDU5IDI4LjE0NzhDMzUuNjU3NCAyOS45NDkxIDQwLjU2NDIgMjcuOTYyOCA0Mi4zNjU1IDIzLjcxMTNDNDQuMTY2OCAxOS40NTk4IDQyLjE4MDUgMTQuNTUzIDM3LjkyOSAxMi43NTE3QzMzLjY3NzUgMTAuOTUwNCAyOC43NzA3IDEyLjkzNjcgMjYuOTY5NCAxNy4xODgyQzI1LjE2ODEgMjEuNDM5NyAyNy4xNTQ0IDI2LjM0NjUgMzEuNDA1OSAyOC4xNDc4WiIgY2xpcC1ydWxlPSJldmVub2RkIiBmaWxsLXJ1bGU9ImV2ZW5vZGQiLz4mI3hhOzxwYXRoIGZpbGw9IiMzQjYwQTIiIGQ9Ik0yNC40MzU2IDMwLjk3MDZDMjQuNzQ1NiAzMS4zNTE4IDI0LjczMjggMzEuOTAxOCAyNC40MDUzIDMyLjI2ODFMMjMuOTgxNiAzMi43NDIxQzI0LjM2MDcgMzMuNTU5MiAyNC42MTg1IDM0LjQxNTYgMjQuNzU2NSAzNS4yODUxTDI1LjgxNDkgMzUuNjY0M0MyNi4yNzczIDM1LjgzIDI2LjU1MDkgMzYuMzA3IDI2LjQ2MDUgMzYuNzg5OEwyNS45ODI2IDM5LjM0MTJDMjUuODkwNyAzOS44MzE3IDI1LjQ1MTMgNDAuMTc5NCAyNC45NTI5IDQwLjE1NkwyNC4yODYgNDAuMTI0OEMyNC4wNDQ5IDQwLjc4MDYgMjMuNzMwMyA0MS40MTM5IDIzLjM0MzEgNDIuMDExNkwyMy43NDE0IDQyLjQ2ODNDMjQuMDk4MSA0Mi44NzczIDI0LjA2MzUgNDMuNDk2MiAyMy42NjMzIDQzLjg2MjlMMjEuNzMxMiA0NS42MzMyQzIxLjM1NzggNDUuOTc1MyAyMC43ODc3IDQ1Ljk4NDMgMjAuNDAzNyA0NS42NTQyTDE5Ljg4NzUgNDUuMjEwNEMxOC45NTczIDQ1LjcxNjQgMTcuOTYzOCA0Ni4wNTQ5IDE2Ljk0OTEgNDYuMjI4NkwxNi44MTg3IDQ2LjY2NjJDMTYuNjgyNCA0Ny4xMjM1IDE2LjI0MTkgNDcuNDIwOCAxNS43NjY4IDQ3LjM3NjJMMTMuNDA2NyA0Ny4xNTQ0QzEyLjk0OTUgNDcuMTExNCAxMi41ODAzIDQ2Ljc2MjUgMTIuNTExNSA0Ni4zMDg1TDEyLjQ1NDIgNDUuOTMwMUMxMS40NDM0IDQ1LjYxNTggMTAuNDc1NiA0NS4xMzI2IDkuNTk2MTYgNDQuNDgzNkw5LjMxNTc0IDQ0LjY2OTNDOC45MDg4IDQ0LjkzODggOC4zNjY3NSA0NC44NzUyIDguMDMzMjkgNDQuNTE4OEw2LjE1MTY5IDQyLjUwNzVDNS44MDQyNyA0Mi4xMzYxIDUuNzkwODggNDEuNTYzMiA2LjEyMDU5IDQxLjE3Nkw2LjUyNDExIDQwLjcwMjFDNi4wNDcxNyAzOS42NTg1IDUuNzY3MzcgMzguNTUxOSA1LjY4MTQyIDM3LjQzNjdMNC45MzgxNyAzNy4xMzIzQzQuNTIwMzUgMzYuOTYxMiA0LjI2OTAxIDM2LjUzMTMgNC4zMjQ4MiAzNi4wODMzTDQuNjU2OTEgMzMuNDE3M0M0LjcyMjY0IDMyLjg4OTYgNS4xODk5MyAzMi41MDU2IDUuNzIwNCAzMi41NDM1TDYuNTYyOSAzMi42MDM2QzYuODc1NTUgMzEuOTM4NiA3LjI2ODE1IDMxLjMwNCA3LjczOTgxIDMwLjcxNDZMNy4zODU1IDMwLjIyOTdDNy4wNjg2IDI5Ljc5NTkgNy4xNTA5OCAyOS4xODkzIDcuNTcyMDcgMjguODU1OEw5LjU2MDA4IDI3LjI4MTNDOS45MzQzOCAyNi45ODQ4IDEwLjQ2NiAyNi45OTQzIDEwLjgyOTUgMjcuMzA0TDExLjQ5NjggMjcuODcyNkMxMi4yMjQ0IDI3LjU2NjcgMTIuOTgwOCAyNy4zNTU3IDEzLjc0OCAyNy4yMzg1TDEzLjc4NDMgMjYuNzc2NUMxMy44MjgxIDI2LjIyMDMgMTQuMzE4NSAyNS44MDc1IDE0Ljg3NDEgMjUuODU5M0wxNy43MzcxIDI2LjEyNjJDMTguMjMyOSAyNi4xNzI0IDE4LjYxOTIgMjYuNTc2MyAxOC42NDMyIDI3LjA3MzdMMTguNjc2OSAyNy43NzM1QzE5LjQ4MjkgMjguMDgzOSAyMC4yNTQ1IDI4LjUwNTMgMjAuOTY3MiAyOS4wMzY0TDIxLjUwNjkgMjguNzE4QzIxLjkzMyAyOC40NjY2IDIyLjQ3ODcgMjguNTY0NSAyMi43OTA4IDI4Ljk0ODNMMjQuNDM1NiAzMC45NzA2Wk0xMS4xMjIyIDQwLjQ1MTRDMTMuMjMyNyA0Mi44NTEzIDE2Ljg3NzMgNDMuMDk2MSAxOS4yNjI2IDQwLjk5ODRDMjEuNjQ3OSAzOC45MDA2IDIxLjg3MDYgMzUuMjU0NiAxOS43NjAxIDMyLjg1NDhDMTcuNjQ5NiAzMC40NTQ5IDE0LjAwNSAzMC4yMTAxIDExLjYxOTcgMzIuMzA3OEM5LjIzNDM3IDM0LjQwNTYgOS4wMTE2MyAzOC4wNTE2IDExLjEyMjIgNDAuNDUxNFoiIGNsaXAtcnVsZT0iZXZlbm9kZCIgZmlsbC1ydWxlPSJldmVub2RkIi8+JiN4YTs8L3N2Zz4=" vertex="1" parent="Y00WJjXvsSGyCvDDhoFY-1">
          <mxGeometry x="422" y="1270" width="56" height="52" as="geometry" />
        </mxCell>
        <mxCell id="Y00WJjXvsSGyCvDDhoFY-34" value="2" style="rounded=0;whiteSpace=wrap;html=1;labelBackgroundColor=none;fontFamily=Verdana;fontSize=14;fillColor=#004C99;strokeColor=#B3B3B3;fontColor=#FFFFFF;fontStyle=1;strokeWidth=2;" vertex="1" parent="Y00WJjXvsSGyCvDDhoFY-1">
          <mxGeometry x="183" y="1370" width="20" height="20" as="geometry" />
        </mxCell>
        <mxCell id="Y00WJjXvsSGyCvDDhoFY-35" value="3" style="rounded=0;whiteSpace=wrap;html=1;labelBackgroundColor=none;fontFamily=Verdana;fontSize=14;fillColor=#004C99;strokeColor=#B3B3B3;fontColor=#FFFFFF;fontStyle=1;strokeWidth=2;" vertex="1" parent="Y00WJjXvsSGyCvDDhoFY-1">
          <mxGeometry x="308" y="1370" width="20" height="20" as="geometry" />
        </mxCell>
        <mxCell id="Y00WJjXvsSGyCvDDhoFY-36" value="4" style="rounded=0;whiteSpace=wrap;html=1;labelBackgroundColor=none;fontFamily=Verdana;fontSize=14;fillColor=#004C99;strokeColor=#B3B3B3;fontColor=#FFFFFF;fontStyle=1;strokeWidth=2;" vertex="1" parent="Y00WJjXvsSGyCvDDhoFY-1">
          <mxGeometry x="440" y="1370" width="20" height="20" as="geometry" />
        </mxCell>
        <mxCell id="Y00WJjXvsSGyCvDDhoFY-37" value="Model" style="shape=mxgraph.bpmn.data;labelPosition=center;verticalLabelPosition=bottom;align=center;verticalAlign=top;size=15;html=1;" vertex="1" parent="Y00WJjXvsSGyCvDDhoFY-1">
          <mxGeometry x="602" y="1266" width="48" height="60" as="geometry" />
        </mxCell>
        <mxCell id="Y00WJjXvsSGyCvDDhoFY-38" value="5" style="rounded=0;whiteSpace=wrap;html=1;labelBackgroundColor=none;fontFamily=Verdana;fontSize=14;fillColor=#004C99;strokeColor=#B3B3B3;fontColor=#FFFFFF;fontStyle=1;strokeWidth=2;" vertex="1" parent="Y00WJjXvsSGyCvDDhoFY-1">
          <mxGeometry x="616" y="1370" width="20" height="20" as="geometry" />
        </mxCell>
        <mxCell id="Y00WJjXvsSGyCvDDhoFY-39" value="1" style="rounded=0;whiteSpace=wrap;html=1;labelBackgroundColor=none;fontFamily=Verdana;fontSize=14;fillColor=#004C99;strokeColor=#B3B3B3;fontColor=#FFFFFF;fontStyle=1;strokeWidth=2;" vertex="1" parent="Y00WJjXvsSGyCvDDhoFY-1">
          <mxGeometry x="120" y="1159.93" width="20" height="20" as="geometry" />
        </mxCell>
        <mxCell id="Y00WJjXvsSGyCvDDhoFY-40" value="6" style="rounded=0;whiteSpace=wrap;html=1;labelBackgroundColor=none;fontFamily=Verdana;fontSize=14;fillColor=#004C99;strokeColor=#B3B3B3;fontColor=#FFFFFF;fontStyle=1;strokeWidth=2;" vertex="1" parent="Y00WJjXvsSGyCvDDhoFY-1">
          <mxGeometry x="673" y="1210" width="20" height="20" as="geometry" />
        </mxCell>
      </root>
    </mxGraphModel>
  </diagram>
</mxfile>
